<svg xmlns="http://www.w3.org/2000/svg" width="123.346" height="112" viewBox="0 0 123.346 112"><defs><style>.a{fill:#de6834;}</style></defs><g transform="translate(0.002 -17.933)"><g transform="translate(-0.002 17.933)"><path class="a" d="M115.052,275.47l-.009,0,0,.016Z" transform="translate(-78.663 -194.032)"/><path class="a" d="M148.018,261.418v.014h.012Z" transform="translate(-101.213 -184.426)"/><path class="a" d="M211.248,240.265h-.009v.007Z" transform="translate(-144.443 -169.962)"/><path class="a" d="M122.695,65.67c-.345-.2-.275-.472-.283-.754a4.645,4.645,0,0,0-.048-1.1c-.171-.593-.437-1.159-.622-1.634a3.228,3.228,0,0,1-1.138-.355c-.137-.113.031-.593.058-.907l.171,0c-.09-.154-.676-.27-.07-.487.073-.025.108-.243.11-.372,0-.327-.01-.656-.037-.984a2.818,2.818,0,0,0-.117-.661c-.16-.467-.379-.915-.52-1.386-.146-.493-.2-1.009-.341-1.506-.193-.706-.422-1.4-.636-2.1-.015-.05-.023-.1-.042-.15-.181-.455-.4-.9-.539-1.366-.158-.53-.237-1.085-.368-1.625-.095-.39-.216-.773-.333-1.157-.193-.613-.4-1.222-.586-1.836a12.631,12.631,0,0,0-.368-1.295c-.266-.623-.686-1.189-.886-1.828a3.133,3.133,0,0,0-.657-1.187,4.5,4.5,0,0,0-2.174-1.534,3.455,3.455,0,0,1-.865-.337,3.6,3.6,0,0,0-2.474-.158,10.6,10.6,0,0,0-1.844.558c-.065.019-.172-.011-.2.029-.481.617-.722.085-.965-.22-.533-.666-1.022-1.368-1.552-2.035-.395-.5-.832-.96-1.246-1.443-.586-.681-1.136-1.392-1.75-2.047-.668-.715-1.381-1.39-2.085-2.068s-1.436-1.37-2.176-2.031c-.593-.527-1.217-1.021-1.854-1.549a.823.823,0,0,1-.1.134,1.376,1.376,0,0,1-.2.113c-.289-1.055-1.272-1.321-1.979-1.87a4.273,4.273,0,0,0-2.494-1.311c-.046-.2-.085-.363-.125-.532-.167-.04-.379-.023-.46-.117-.285-.334-.52-.423-.782.008a.188.188,0,0,1-.189.025.3.3,0,0,1-.108-.2c-.013-.219-.006-.439-.006-.638a1.757,1.757,0,0,1-.582-.192c-.362-.315-.68-.365-1.02.014-.045.049-.2.076-.231.046-.583-.634-.866.157-1.292.262-.53.132-.988.615-1.766.3a4.787,4.787,0,0,1,.818-.518,1.165,1.165,0,0,0,.522-1.538,4.064,4.064,0,0,0-1.829-1c-.221-.089-.431-.2-.651-.3-.5-.218-1-.442-1.51-.639-.25-.1-.535.026-.772-.29-.166-.219-.593-.239-.9-.343-.374-.129-.757-.239-1.126-.383-.426-.165-.826-.4-1.261-.531-.562-.167-1.146-.258-1.72-.382a1.282,1.282,0,0,1-.15-.041c-.508-.179-1.009-.4-1.529-.53a7.267,7.267,0,0,1-1.363-.266,9.56,9.56,0,0,0-2.216-.4c-.277-.049-.543-.179-.822-.217a4.321,4.321,0,0,0-.785.047.264.264,0,0,0-.162-.124c-.712-.119-1.425-.259-2.141-.306-.822-.055-1.652-.008-2.478-.029-.556-.014-1.11-.073-1.664-.107a3.129,3.129,0,0,0-.88-.013,5.189,5.189,0,0,0-.94.418c-.037-.188-.075-.378-.148-.755-.248.553-.455.441-.647.25a2.23,2.23,0,0,1-.741.215c-.7.053-1.441-.261-2.086.288-.077.065-.313-.047-.471-.094s-.306-.182-.44-.16c-.237.038-.457.236-.688.241a10.2,10.2,0,0,0-2.594.3c-.477.134-1.019.023-1.514.12-.7.138-1.37.452-2.07.529a1.75,1.75,0,0,0-1.281.524,2.194,2.194,0,0,0-.775-.114c-.465.138-.9.38-1.362.536-.7.236-1.416.445-2.13.648-.548.156-1.1.286-1.642.422-.053.168-.1.327-.111.341a6.362,6.362,0,0,0-.84.009c-.15.022-.282.15-.432.2-.372.134-.76.229-1.125.385s-.706.38-1.067.552c-.5.237-1.012.446-1.511.68-.128.059-.224.228-.348.242a3.983,3.983,0,0,0-1.682.807c-.085.056-.169.152-.257.154a.957.957,0,0,0-.895,1.048,4.268,4.268,0,0,1-.534,1.426c-.06-.271-.133-.638.013-.781.359-.349.183-.635.085-.952-.3.111-.57.192-.824.31-.515.242-.841.776-1.449.9-.19.039-.34.268-.509.409.1.093.211.182.3.282.358.387.717.773,1.071,1.166a3.84,3.84,0,0,1,.25.341c-.327-.194-.647-.4-.984-.578-.395-.2-.544-.834-1.13-.692a2.839,2.839,0,0,0-1,.382,21.245,21.245,0,0,1-1.848,1.311c-.621.363-1.078,1-1.688,1.4-.781.507-1.311,1.268-2.094,1.793a15.881,15.881,0,0,0-2.318,2.277c-.224.229-.406.493-.63.722-.183.191-.424.331-.591.534-.716.862-1.409,1.739-2.118,2.606a9.907,9.907,0,0,0-1.364,1.708c-.32.655-.862,1.108-1.21,1.72a11.247,11.247,0,0,0-1.012,1.514c-.207.565-.672.913-.9,1.43-.1.228-.329.441-.331.662s.213.426.335.638c.107.188.217.373.361.619l1.086-.228.373.394a11.524,11.524,0,0,1-1.557.44c-.7.094-.891.207-1.083.935-.114-.026-.282-.014-.337-.086-.3-.387-.527-.162-.685.1a7.576,7.576,0,0,0-.424.946c.333.138.073.269-.017.375-.2.233-.5.414-.615.677-.374.836-.679,1.7-1.014,2.557-.138.354-.28.7-.416,1.059-.178.459-.361.914-.519,1.379-.134.391-.124.9-.378,1.163a.533.533,0,0,0-.022.848c-.194.225-.441.389-.512.609-.244.759-.444,1.534-.632,2.309-.227.937-.45,1.875-.63,2.822-.1.55-.12,1.1-.276,1.658-.24.869-.159,1.81-.335,2.731a40.937,40.937,0,0,0-.386,4.457c0,.03-.034.058-.041.071-.55.143-1.089.273-1.625.418a8.547,8.547,0,0,0-1.106.349,5.27,5.27,0,0,0-1.11.6A5.7,5.7,0,0,0,.993,74.844a15.571,15.571,0,0,0-.9,1.53c-.165.281-.124,1.063.113,1.109.552.1.388.522.455.849.045.218.107.433.179.728-.317.439-.918.868-.81,1.637.031.218.207.414.262.634.142.555.254,1.118.38,1.679a1.02,1.02,0,0,0,.049.146c.176.456.381.9.523,1.371.148.489.089,1.13.389,1.456.463.5.136,1.128.516,1.646a4.89,4.89,0,0,1,.414,1.654c.1.383.211.762.339,1.136A14.506,14.506,0,0,1,3.461,92c.089.4.077.8.548.828-.068.21-.213.412-.168.552a4.486,4.486,0,0,0,.5,1.047c.129.2.357.46.545.464.51.012.52.316.508.659a3.769,3.769,0,0,1-.089.535c.146.115.27.212.5.4-.345.027-.516.042-.732.058a2.416,2.416,0,0,0-.023.526,16.484,16.484,0,0,0,.392,1.773,11.173,11.173,0,0,0,.6,1.357,2.587,2.587,0,0,1,.249.495c.1.495-.069,1.009.307,1.5.41.532.622,1.217,1.016,1.766a6.123,6.123,0,0,0,1.149,1.09,8.252,8.252,0,0,0,.963.591.751.751,0,0,0,.382-.974,4.76,4.76,0,0,0-.706-.9.729.729,0,0,1-.844-.51c-.16-.395-.239-.824-.414-1.211-.244-.541-.606-1.036-.81-1.588-.275-.747-.463-1.531-.666-2.3-.144-.549-.249-1.107-.384-1.658a.626.626,0,0,0-.173-.25,1.6,1.6,0,0,1-.436-1.244,7.477,7.477,0,0,0-.371-1.768,6.951,6.951,0,0,0-.3-.79,13.216,13.216,0,0,1-.534-1.365c-.172-.637-.253-1.3-.4-1.943a9.5,9.5,0,0,0-.343-1.092c-.172-.472-.395-.93-.537-1.413-.175-.587-.29-1.192-.439-1.839l-.513.323c.056-.262.085-.42.122-.578a1.735,1.735,0,0,0,.135-.578,8.2,8.2,0,0,0-.295-1,10.709,10.709,0,0,0-.36-1.2,6.8,6.8,0,0,1-.572-2.339,8.437,8.437,0,0,1,.252-2.076,4.216,4.216,0,0,1,.92-1.669A5.98,5.98,0,0,1,3.8,74.431a4.3,4.3,0,0,1,1.251-.677,16.762,16.762,0,0,1,1.863-.378c.051-.194.094-.352.138-.512.02.051.038.1.058.156a5.61,5.61,0,0,0,.792-.01,5.194,5.194,0,0,0,.534-.2c.186-.047.395-.013.57-.078.44-.162.856-.4,1.3-.533.559-.166,1.143-.254,1.716-.379a1.529,1.529,0,0,0,.207-.07c-.057-.184-.108-.342-.159-.5.173.036.345.075.518.1a1.626,1.626,0,0,0,.635.085c.544-.145,1.073-.352,1.607-.534.41-.138.824-.262,1.228-.412.047-.018.051-.152.074-.233A1.664,1.664,0,0,0,15.823,70c-.25-.126-.434-.749-.779-.111-.231-.179-.913.048-1.163.263-.148.128-.282.781-.665.147-.039-.066-.379.028-.569.077s-.4.15-.6.221c-.231.081-.463.165-.7.228-.177.047-.365.065-.589.1,0-.547-.034-1.035.009-1.518.046-.525.169-1.041.247-1.563a1.341,1.341,0,0,0,.025-.623c-.063-.174-.268-.3-.422-.434-.012-.01-.158.079-.171.138a9.394,9.394,0,0,0-.3,1.523c-.047.887-.015,1.78-.015,2.668l-.1-.047-.446.726c-.081-.627-.152-1.185-.231-1.81a.272.272,0,0,0,.129-.16c.114-.586.228-1.176.294-1.767.045-.416-.054-.856.029-1.26.12-.58-.339-1.25.2-1.676-.041-.22-.155-.435-.089-.535a2.186,2.186,0,0,0,.529-1.345,1.423,1.423,0,0,1,.043-.419c.192-.794.389-1.588.583-2.381.1-.4.073-.927.322-1.185.449-.466.209-1.089.568-1.578a4.735,4.735,0,0,0,.4-1.437,9.291,9.291,0,0,1,.378-1.078c.267-.615.572-1.21.836-1.825.235-.549.428-1.113.659-1.663.069-.168.221-.3.295-.467a8.577,8.577,0,0,1,.743-1.7c.3-.4.313-.64.094-.849.266-.267.528-.491.743-.756.165-.2.225-.512.414-.68a7.426,7.426,0,0,0,1.209-1.962c.083-.016.2-.006.23-.055.229-.329.428-.679.656-1.006.528-.755,1.073-1.5,1.6-2.252.237-.335.425-.705.688-1.017.378-.448.826-.835,1.2-1.283.592-.7,1.2-1.382,1.842-2.04.558-.572,1.343-1.024,1.471-1.941,0-.025.047-.045.071-.068.246.2.236.194.459-.024.169-.165.382-.288.544-.459.317-.341.611-.7.913-1.057-.029-.029-.059-.059-.09-.089l.8-.144c.021-.056.043-.109.066-.164a2.863,2.863,0,0,0-.713-.408,4.4,4.4,0,0,0-.982-.016c.073-.235.119-.384.166-.536a3.117,3.117,0,0,0,.534.218c.382.081.836-.12,1.131.322.04.06.3.041.395-.023.254-.167.476-.389.715-.58.28-.225.564-.448.852-.662q.849-.634,1.71-1.252c.369-.264.749-.508,1.2-.815v-.469l.4-.166c.244.051.426.15.512.1.6-.371,1.155-.807,1.761-1.157.655-.378,1.353-.678,2.022-1.029.643-.335,1.276-.69,1.947-1.055.017-.194.043-.457.068-.721l.129-.013c.074.18.147.361.228.557a1.6,1.6,0,0,0,.369-.059,18.1,18.1,0,0,0,2.035-.921c.518-.307,1.411-.186,1.5-1.14.032.17.064.34.111.6.179-.14.307-.306.469-.353.472-.138.959-.226,1.437-.341a.922.922,0,0,0,.237-.094,3.1,3.1,0,0,1,1.668-.531,1.3,1.3,0,0,0,.414-.048c.625-.179,1.238-.412,1.873-.544.787-.166,1.591-.25,2.4-.371.04-.315.075-.6.11-.887h.164c.052.3.1.6.156.928a2.019,2.019,0,0,1,.513-.276c.781-.121,1.563-.264,2.352-.311,1.051-.065,2.107-.087,3.159-.051a1.386,1.386,0,0,0,1.36-.647c.083.249.139.422.209.631h6.056c.192-.266.325-.446.454-.623-.014.28-.025.56-.036.9-.068-.02-.006.009.058.015q1.7.163,3.4.325a1.689,1.689,0,0,1,.256.06c.7.2,1.4.418,2.116.582.661.152,1.336.241,2,.359a.594.594,0,0,1,.1.019,9.676,9.676,0,0,0,1.583.555,9.83,9.83,0,0,1,2.068.634,22.981,22.981,0,0,0,2.224.662.585.585,0,0,1,.145.054c.3.191.6.386.932.6.052-.371.09-.668.133-.966l.193.006a4.117,4.117,0,0,1,.058.627.559.559,0,0,0,.452.635,6.632,6.632,0,0,1,1.063.39c.518.256,1.009.566,1.515.842q.878.48,1.766.942c.244.128.5.234.749.36a7.144,7.144,0,0,1,.757.408,16.447,16.447,0,0,0,2.068,1.426c.668.32,1.093.913,1.739,1.236a7.144,7.144,0,0,1,.8.67c.67.485,1.407.891,2.026,1.436.816.718,1.488,1.6,2.33,2.287.533.434.868,1.252,1.621,1.134a13.008,13.008,0,0,0,.641,1.165c.148.217.414.349.583.554.944,1.134,1.858,2.293,2.817,3.414a.717.717,0,0,1,.177.911c-.181-.152-.348-.292-.516-.43a1.281,1.281,0,0,1-1.073.643c-.449.047-.635.171-.564.619,0,0,0-.006,0,0,0,.209,0,.416,0,.666l1.808-.384c.016,0,.025-.026.04-.032a13.713,13.713,0,0,1,1.332-.508c.583-.158,1.192-.227,1.779-.373a8.261,8.261,0,0,0,1.022-.379,4.234,4.234,0,0,1,1.309-.507c1.217-.019,2.476-.337,3.645.282a8.006,8.006,0,0,1,1.35.771,4.075,4.075,0,0,1,.968,1.163c.131.233.016.6.012.913-.372-.331-.572-.668-.846-.928-.387-.367-.674-.858-1.244-1.018a1.318,1.318,0,0,1-.666-.351c-.345-.42-.585-.209-.866.107-.061-.126-.1-.288-.148-.288a7.8,7.8,0,0,0-1.856.047,13.26,13.26,0,0,1-1.581.523,3.173,3.173,0,0,0-1.407.284,13.292,13.292,0,0,1-2.694.964c-.524.164-1.073.254-1.633.384.016.365.042.679.034.991,0,.086-.11.169-.171.252-.052-.077-.141-.15-.146-.229-.02-.237-.008-.475-.008-.757a4.542,4.542,0,0,0-.9.079c-.522.157-1.022.386-1.544.559-.423.14-.861.235-1.288.361-.653.2-1.3.4-1.953.6a3.6,3.6,0,0,0-1.18.369c-.547.439-1.24.2-1.818.563a8.064,8.064,0,0,1-1.858.609c-.374.119-.735.276-1.117.365-.589.138-1.19.235-1.787.349a.684.684,0,0,0-.1.04c-.51.183-1.012.386-1.531.544s-1.037.223-1.536.39c-.576.194-1.128.456-1.82.742.152.41.325.876.443,1.2a2.831,2.831,0,0,1,.816.011A3.918,3.918,0,0,0,86,52.894c.366-.022.576.218.693.613a6.206,6.206,0,0,1-2.2-.212,6.871,6.871,0,0,1-1.825-1.033c-.05.154-.1.312-.154.47l-.25-.191V51.216l-1.09.459c.037.322.065.572.1.939-.47-.308-.606-.824-1.14-.679-.507.137-1.017.257-1.523.385a.345.345,0,0,0-.048.023c-.456.178-.907.376-1.373.525-.526.165-1.063.284-1.646.436.152.179.248.371.4.457.189.108.443.165.206.406a.565.565,0,0,1-.514-.093c-.218-.569-.377.026-.535.022-.221-.194-.428-.371-.555-.483-.612.191-1.152.4-1.712.526-.485.114-1.036-.069-1.463.329a1,1,0,0,1-.381.276c-.637.149-1.284.27-1.927.4a1.567,1.567,0,0,0-.352.061c-.441.209-.872.436-1.415.71.221.335.477.726.734,1.116l-.125.109a1.8,1.8,0,0,1-.518-.266c-.431-.466-.742-1.211-1.561-.549-.011.009-.033.008-.05.009a11.632,11.632,0,0,0-1.794.27c-.713.151-1.242.61-1.925.779a14.953,14.953,0,0,1-1.868.578.763.763,0,0,0-.424.217,7.38,7.38,0,0,0-.523.7c-.057-.218-.1-.41-.154-.6-.52.132-1.011.243-1.494.384-.583.171-1.159.365-1.735.56a1.5,1.5,0,0,0-.545.266,2.857,2.857,0,0,0-.382.519,3.134,3.134,0,0,0-.834-.156,5.889,5.889,0,0,0-.848.276c-.542.138-1.092.236-1.635.373-.42.1-.836.226-1.242.371-.467.165-.913.392-1.384.54-.51.16-1.039.258-1.542.378-.018.369.089.781-.073.976-.382.463-.173.952-.237,1.426a1.587,1.587,0,0,1-.191.408,1.347,1.347,0,0,1-.137-.393c-.013-.694-.006-1.39-.006-2.157a5.52,5.52,0,0,0-.593.124c-.5.161-1,.363-1.5.507s-1.056.226-1.577.371c-.668.185-1.33.4-1.994.607-.066.019-.168,0-.2.037-.41.447-.926.232-1.406.243-.095-.495.19-.669.611-.675.051-.183.092-.329.113-.4.4.053.751.1,1.285.173-.222-.525-.374-.886-.548-1.294-.12.1-.216.244-.34.278-.481.138-.969.243-1.456.359-.1.023-.2.043-.3.073-.588.183-1.17.384-1.761.552-.5.144-1.019.22-1.512.382-.8.263-1.567.6-2.368.848-.542.171-1.112.252-1.669.376a.938.938,0,0,0-.2.069c-.408.185-.82.365-1.221.566-.271.138-.53.305-.788.469s-.361.548-.806.487c-.137-.018-.322.311-.483.481.041.059.081.121.122.18A7.345,7.345,0,0,1,29.38,66.5a8.257,8.257,0,0,1,1.295,0,.9.9,0,0,1-.871.647,7.807,7.807,0,0,0-1.433.342c-.356.1-.713.2-1.06.325a6.494,6.494,0,0,1-1.4.531,3.39,3.39,0,0,0-1.946.865,2.672,2.672,0,0,0-.655-.158c-.085,0-.162.171-.241.276a4.7,4.7,0,0,0-2.222.557,10.269,10.269,0,0,1-1.37.406c-.538.135-1.089.227-1.627.361a8.331,8.331,0,0,0-.986.32c-.452.173-.885.394-1.343.548-.68.229-1.374.412-2.059.621-.367.113-.719.267-1.092.355-.588.14-1.195.2-1.772.369-.7.2-1.378.477-2.1.731-.009.083-.024.246-.052.531-.3-.521-.666-.414-1-.295a10.036,10.036,0,0,1-1.285.549,10.642,10.642,0,0,0-1.947.606c-.467.191-.779.4-.783.768a5.675,5.675,0,0,0-.7.558c-.122.135-.147.354-.248.516a4.69,4.69,0,0,0-.576,2.062,3.493,3.493,0,0,0,.286,1.95,10.125,10.125,0,0,1,.444,1.437c.154.474.357.936.485,1.413.162.6.268,1.219.4,1.829.009.05.053.093.068.141.171.487.317.986.519,1.463.246.587.083,1.4.929,1.658a.76.76,0,0,0-.12,1.093.978.978,0,0,1,.124.32c.122.508.215,1.02.356,1.519.192.666.418,1.323.632,1.985.021.067.04.135.061.2.186.606.389,1.207.546,1.822.1.373.2.716.622.826a2.694,2.694,0,0,0,.461,1.885c.136-.117.268-.231.4-.343.047.025.1.05.144.073-.055.3-.1.612-.173.909-.038.151-.217.3-.2.424a11.015,11.015,0,0,0,.329,1.306,2.512,2.512,0,0,0,.406,1.042c.783.772,1.376,1.718,2.585,2.077a4.747,4.747,0,0,0,2.476.112,1.81,1.81,0,0,1,1.479.1c-.006.156.045.374-.036.447-.185.165-.124.683-.613.458a2.178,2.178,0,0,0-.745-.227c-.753-.04-1.508-.031-2.262-.054a1.246,1.246,0,0,1-.4-.092c-.212-.085-.415-.187-.62-.281-.033.059-.068.12-.1.177l.25.295c-.1.426-.179.766-.29,1.238l1.254-.193a1.3,1.3,0,0,0,.548.162c.836-.1,1.667-.25,2.5-.4.068-.012.126-.1.189-.154a.746.746,0,0,1,.98.069,17.358,17.358,0,0,1,1.64,2.262,10.057,10.057,0,0,0,1.357,1.614c.294.339.47.837.927.76a3.744,3.744,0,0,0,.41.843c.644.726,1.317,1.432,2,2.124.584.591,1.2,1.15,1.8,1.716.557.52,1.123,1.028,1.684,1.542a11.437,11.437,0,0,0,.976.876c.672.489,1.413.886,2.053,1.409a20.276,20.276,0,0,0,2.805,1.927,2.028,2.028,0,0,0,2.154-.079c.041-.029.126,0,.194.009a3.4,3.4,0,0,0,1.241,2.32c.031-.658.055-1.179.081-1.7.057-.006.115-.015.173-.02a2.3,2.3,0,0,1,.079.376c.017.385.006.772.04,1.155a.508.508,0,0,0,.209.352c.672.4,1.355.774,2.041,1.144a10.518,10.518,0,0,0,1,.47c.557.229,1.127.431,1.684.662.128.054.213.216.341.262.528.2,1.067.373,1.617.562.04-.151.087-.333.175-.668.1.231.185.322.169.391-.118.524.341.558.617.67a14.325,14.325,0,0,0,1.406.4c.1.029.2.05.31.077a2.564,2.564,0,0,1,.55.194,1,1,0,0,1,.177.079.974.974,0,0,0,.7.237,1.162,1.162,0,0,0,.23.106,4.867,4.867,0,0,0,.671.16c.76.229,1.49.468,2.23.628.083.017.168.021.25.036.156.046.309.1.467.135.837.171,1.689.252,2.536.374.069.011.134.038.2.054a7.076,7.076,0,0,0,.877.212q.3.035.4-.115c.1.011.2.019.3.031a1.166,1.166,0,0,1,.38.15c.016.008.048.008.067.017a1.372,1.372,0,0,0,.534.214c1.674.135,3.35.231,5.025.339a2.22,2.22,0,0,0,.576,0,4.056,4.056,0,0,0,.493-.146c.243,0,.487-.008.73-.008.139.065.276.135.412.2.036-.071.07-.142.1-.212h0c.116,0,.232,0,.35-.008,0,.008,0,.02,0,.023.521.485.955-.423,1.369.054.468-.121.9-.235,1.315-.345a1.6,1.6,0,0,0,.483.131,7.471,7.471,0,0,0,1.893-.235,18.04,18.04,0,0,1,2.867-.4,2.413,2.413,0,0,0,.27-.067c0-.021.006-.043.008-.065.133-.014.266-.025.4-.043a.854.854,0,0,0,.151-.042l.32-.093,0,0c.464-.064.916-.21,1.379-.3.647-.129,1.294-.239,1.943-.362a1.263,1.263,0,0,0,.145-.054c.506-.181,1.009-.377,1.523-.541.445-.142.92-.21,1.35-.387.061-.025.115-.065.175-.1l.052-.012c.366-.1.728-.229,1.084-.362.477-.177.942-.387,1.421-.557.422-.15.872-.233,1.284-.408.586-.248,1.14-.574,1.725-.826s1.228-.435,1.816-.711c.53-.248,1.009-.606,1.531-.872s1.094-.443,1.594-.74c.968-.578,1.906-1.2,2.848-1.824s1.883-1.267,2.823-1.906c.612-.414,1.1-.973,1.727-1.381a15.77,15.77,0,0,0,1.712-1.452c.791-.7,1.608-1.369,2.357-2.108.6-.6,1.061-1.338,1.687-1.9a27.511,27.511,0,0,0,2.813-3.218,8.751,8.751,0,0,0,.9-1.115c.086-.15.643-.372.125-.649a2.984,2.984,0,0,0,1.583-2.761c.187.162.3.258.406.348.566-.938,1.111-1.835,1.667-2.757l-.5-.156c.3-.368.589-.678.822-1.022.068-.1.009-.318-.044-.46a4.381,4.381,0,0,0-.308-.555l.181-.123c.241.237.48.476.763.755.208-.6.372-1.082.514-1.492a8.927,8.927,0,0,0,.539-.822c.25-.495.462-1.007.7-1.51.285-.618.583-1.232.865-1.852a7.9,7.9,0,0,0,.32-.815c.142-.435.244-.888.4-1.317.271-.751.6-1.481.851-2.239.239-.728.312-1.494.61-2.22a9.3,9.3,0,0,0,.37-1.9c.02-.1.021-.212.046-.312.181-.7.4-1.382.547-2.087a13.67,13.67,0,0,1,.27-2.029,11.839,11.839,0,0,0,.362-2.811,8.129,8.129,0,0,0,.014-1.317,2.794,2.794,0,0,0-.2-.641,4.307,4.307,0,0,0,.2-1.117c.025-.412.008-.826.008-1.223,1.224-.174,2.351-.219,4.076-2.408a1.048,1.048,0,0,1-.091-1.363c.121.138.237.273.416.479-.042-.491.046-.719.487-.911.36-.158.578-.666.832-1.035a1.108,1.108,0,0,0,.268-.606,16.117,16.117,0,0,0-.25-1.65C123.024,66.464,123.167,65.936,122.695,65.67ZM12.731,49.739c.367-.711.666-.8,1.171-.47C13.5,49.43,13.113,49.584,12.731,49.739Zm4.416-5.448a1.087,1.087,0,0,1,.585.956C17.189,45.1,17.059,44.912,17.147,44.291Zm16.783-15.5V28l.169-.007c.013.263.028.526.041.79C34.07,28.788,34,28.79,33.93,28.792Zm2.386-1.562s-.178,0-.178,0c-.008-.282-.008-.562-.008-.94.137.126.2.16.2.194C36.337,26.73,36.329,26.98,36.316,27.23Zm24.675-6.225c-.369-.514-.3-.9.066-1.009C61.039,20.3,61.018,20.6,60.991,21.005Zm.356-1.274c-.008.087-.171.156-.274.233a9.31,9.31,0,0,1,0-.994c.009-.093.182-.169.288-.252A10.007,10.007,0,0,1,61.348,19.732Zm6,1.155c.273-.252.428-.711.947-.557C68.188,20.877,68.037,20.962,67.348,20.887Zm20.288,5.886,1.175-.5c.021.063.046.126.069.189A.911.911,0,0,1,87.637,26.773ZM5.75,84.9a3.753,3.753,0,0,1,.017-.828c.026-.1.235-.174.374-.208.047-.012.2.181.188.2C6.185,84.312,6.015,84.531,5.75,84.9Zm1.15-2.41.7.223c-.137.173-.272.347-.511.645C7.015,83.032,6.976,82.852,6.9,82.494Zm.394,14.019V95.57c.235.027.4.048.641.075C7.776,96.03,7.754,96.423,7.293,96.513ZM115.554,47.487a3,3,0,0,1,.724,2.435c-.148-.124-.4-.226-.455-.394a14.9,14.9,0,0,1-.377-1.639C115.425,47.777,115.507,47.647,115.554,47.487Zm-.246,17.455c-.214-.116-.424-.237-.626-.369-.07-.045-.106-.138-.16-.209.067-.041.131-.113.2-.119a3.374,3.374,0,0,1,1.87.4c.1.049.1.4.054.585-.025.111-.223.183-.314.252C115.939,65.277,115.619,65.113,115.307,64.942Zm.8,6.861c-.443.092-.645-.051-.616-.517C115.954,71.158,116.1,71.373,116.11,71.8Zm-1.571-10.118c0-.348-.006-.7.007-1.043a.208.208,0,0,1,.154-.139c.058.006.158.1.154.147-.015.348-.05.694-.081,1.042Zm.443-10.279c.127.1.273.223.524.428h-1.078C114.691,51.629,114.828,51.525,114.982,51.406Zm-1.64-3.84.127,0v.846l-.127,0Zm.4,3.827c.127.1.281.227.554.448h-1.269c-.008-.032-.018-.061-.025-.092C113.247,51.633,113.488,51.517,113.746,51.393Zm.052,17.566a10.094,10.094,0,0,0-.4.973c-.5-.719.218-1.25.21-1.88C113.894,68.182,113.95,68.671,113.8,68.959Zm-1.864-18.3c.027.337.05.621.065.786-.62-.061-1.182-.114-1.745-.173-.14-.015-.275-.053-.564-.111C110.466,50.755,111.26,51.308,111.934,50.657Zm-.042,2.853v1.331c-.443-.384.162-1.045-.658-1.153.046-.043.09-.089.137-.132ZM96.465,51.548l-.915.053C95.683,51.206,95.928,51.154,96.465,51.548Zm-2.357.282c.192-.274.391-.557.653-.927.1.3.156.472.225.677l.532.038c-.1.557-.622.157-.9.394.09.207.191.432.3.682-.611-.186-1.155-.329-1.681-.52-.173-.063-.3-.249-.454-.379A1.067,1.067,0,0,1,94.108,51.831ZM92.8,50.9H91.137C91.285,50.623,92.235,50.574,92.8,50.9Zm-1.421-1.812c0,.065,0,.128.006.193h-.865c0-.049,0-.1-.008-.148C90.8,49.12,91.091,49.1,91.378,49.088Zm-2.083,1.273h.137v.85h-.137ZM87.169,54.1a4.764,4.764,0,0,1,2.235.467c.15.024.3.04.451.075.095.022.189.113.275.1.557-.067.849.352,1.179.658a1.156,1.156,0,0,0,1.272.2,4.278,4.278,0,0,1,.6-.23c.487-.177.986-.329,1.461-.536a.74.74,0,0,1,.9.452c.181.6.4,1.2.587,1.8.046.147.013.317.054.469a5.7,5.7,0,0,0,.233.6c-.485.682-1.412.7-2.157,1.163-.013.124-.034.317-.056.508l-.154.018c-.045-.19-.087-.378-.138-.6l-1.15.384c.106.255.214.525.323.8.013-.026.031-.051.044-.077l1.034.711c.05-.053.127-.139.216-.234a.835.835,0,0,0,1.174.051c.551-.376,1.111.008,1.294.625.158.534.133,1.17.6,1.588a.735.735,0,0,0,.426.2,1.916,1.916,0,0,1,1.494.6.246.246,0,0,0,.189.064c.587-.093.982.327,1.462.526a5.585,5.585,0,0,0,1.571.372c-.117-.327-.239-.653-.349-.98-.117-.348-.233-.7-.323-1.049-.138-.538-.227-1.09-.385-1.62-.148-.495-.36-.97-.545-1.456a1.436,1.436,0,0,1-.064-.2c-.117-.544-.2-1.1-.356-1.63-.135-.47-.368-.909-.53-1.373-.144-.416-.25-.843-.376-1.268l-.5-1.679c.651-.369,1.6-.268,2.218-.953a1.655,1.655,0,0,0,1.777-.5c.414.02.791.154,1.005.022a3.244,3.244,0,0,1,1.671-.241c.21-.013.424,0,.633,0a4.008,4.008,0,0,1,2.132.582c.287.171.662.2.947.372a3.615,3.615,0,0,1,.843.737c.52.615,1.024,1.244,1.488,1.9a10.659,10.659,0,0,1,.431.994c.318.572.152,1.352.849,1.794.146.094-.016.671-.092,1.01a3.783,3.783,0,0,1,.16.873,6.6,6.6,0,0,0-.12,1.968c.149.5-.071.739-.2,1.08a3.243,3.243,0,0,1-.335.673c-.293.444-.611.873-.919,1.309q-.456.369-.914.737c-.424.343-.734.822-1.375.885-.314.032-.593.351-.913.476-.466.181-.955.3-1.434.452-.574.183-1.144.379-1.718.557a9.471,9.471,0,0,1-1.163.322c-.264.045-.612-.546-.712-.964A3.414,3.414,0,0,0,102.811,66a2.657,2.657,0,0,0-.868-.464c-.327-.144-.678-.241-1-.392-.383-.178-.755-.386-1.123-.6a2.357,2.357,0,0,1-.349-.313c-.085.118-.165.23-.25.347-.291-.246-.539-.483-.813-.688-.535-.4-.722-.356-.922.291-.095.305-.262.329-.516.4-.611.158-1.205.384-1.812.572a4.472,4.472,0,0,1-.533.094v.837l.558.106c.034.173.014.416.123.527.246.248.514.679.922.138.067-.089.3-.055.456-.069.479-.043.479-.041.393-.629H96.041l.6-.59c.21.376.441.509.651-.22.085.376.123.548.192.864a5.894,5.894,0,0,1,.659-.263c.171-.047.46-.112.526-.031.352.437.6.356.826-.216.042.04.081.079.123.118.023.414.046.831.069,1.238-.223.06-.387.1-.543.143.233.786.46,1.55.7,2.365a1.79,1.79,0,0,1-1.488.76,5.192,5.192,0,0,0-1.319.5.394.394,0,0,1-.1.038c-.524.122-1.057.218-1.573.374-.5.152-.984.363-1.475.549-.031.011-.065.027-.1.037-.387.112-.776.215-1.159.335a.65.65,0,0,1-.836-.3,6.927,6.927,0,0,1-.378-1.088c-.2-.6-.4-1.189-.591-1.785-.114-.349-.229-.7-.32-1.05-.135-.523-.227-1.053-.373-1.572-.095-.335-.252-.655-.379-.979a1.933,1.933,0,0,1-.21-.581,6.612,6.612,0,0,0-.6-2.157c-.177-.459-.239-.963-.385-1.435-.177-.574-.387-1.138-.582-1.707-.016-.05-.019-.1-.033-.152-.175-.6-.377-1.2-.508-1.816a.6.6,0,0,1,.274-.515c.753-.179,1.353-.789,2.218-.7a3.235,3.235,0,0,0,1.153-.374c.009-.136.019-.3.031-.465a7.453,7.453,0,0,1-2.018-.438c-.5-.267-1.144-.008-1.525-.531-.023-.034-.192.041-.295.065-.079.017-.191.076-.233.046a3.477,3.477,0,0,1-.376-.357A2.1,2.1,0,0,1,87.169,54.1Zm25.645,10.451c-.029.018-.095-.025-.256-.077.152-.108.229-.155.3-.217.108-.1.21-.2.316-.3.02.106.095.258.05.31A1.577,1.577,0,0,1,112.814,64.551Zm.054,5.518c0,.563,0,1.129-.012,1.693a1.408,1.408,0,0,1-.262.034c.027-.578.058-1.151.089-1.727C112.744,70.07,112.806,70.068,112.868,70.068Zm-.287,1.765v1.528A1.271,1.271,0,0,1,112.581,71.833Zm-.865-5.7c-.015-.3-.033-.606-.05-.909C112.022,65.384,112.091,65.742,111.716,66.137Zm-1.939,7.21a1.46,1.46,0,0,1-.306.135c-.212-.152-.433-.3-.639-.466-.025-.02.012-.179.029-.181a1.2,1.2,0,0,1,.493,0,1.278,1.278,0,0,1,.393.329C109.785,73.2,109.8,73.327,109.777,73.347Zm-2.561-2.4V71.7l-.872.43-.574-.8c-.042.025-.152.1-.266.168-.052-.028-.106-.058-.162-.085.121-.274.235-.553.37-.82.015-.032.175-.04.189-.016C106.211,71.152,106.793,70.776,107.217,70.951Zm-4.442-.339c-.524-.069-.916-.282-.949-.884-.637-.24-.664-.3-.524-1.427.127.139.2.217.268.3a12.261,12.261,0,0,0,.828,1C102.693,69.892,102.942,70.167,102.774,70.612Zm.4.134a2.356,2.356,0,0,1,.717.5,4.786,4.786,0,0,1,.454.946,1.807,1.807,0,0,1-1.323-.691,3.15,3.15,0,0,1-.235-.86A1.331,1.331,0,0,1,103.177,70.746Zm1.488,2.37c.083-.269.183-.538-.229-.679-.04-.013-.042-.139-.059-.222.275-.065.549-.132.9-.213-.042-.056.021,0,.014.021-.183.547-.36,1.1-.578,1.629-.027.065-.314.087-.437.032a3.57,3.57,0,0,1-.609-.495Zm-3.858-2.159v1.155h-.145V70.957C100.712,70.959,100.76,70.959,100.807,70.957Zm-7.2,5.253c-.231.023-.408.042-.67.067.062-.252.1-.422.164-.668C93.28,75.825,93.407,75.975,93.6,76.209Zm-5.721-11.8c-.131.154-.262.309-.479.568V63.9C87.6,64.112,87.743,64.259,87.883,64.41Zm-1.434,2.719.167.008v.831c-.054,0-.11,0-.167,0Zm-7.293-9.777.135-.012c.092.363.189.723.3,1.169-.089.022-.254.059-.437.1C79.155,58.149,79.155,57.75,79.155,57.351Zm.231,2.152c.422-.114.837-.244,1.25-.383.173-.057.335-.156.508-.215.31-.1.618-.207.936-.28.333-.075.655-.181.843.31A9.217,9.217,0,0,1,83.56,61a7.727,7.727,0,0,0,.541,1.415,10.871,10.871,0,0,1,.343,1.146c.137.56.212,1.136.376,1.686a12.7,12.7,0,0,0,.537,1.311.611.611,0,0,1,.027.1c.123.556.214,1.122.376,1.667.146.489.381.951.552,1.431.133.374.244.76.341,1.146.133.54.235,1.089.376,1.625.044.169.2.307.254.475.146.491-.156.856-.838,1.033-.533.138-1.068.27-1.662.421.1.7.2,1.411.3,2.122a1,1,0,0,1-.262-.291c-.135-.335-.219-.692-.35-1.026a.442.442,0,0,0-.249-.212c-.366-.136-.745-.241-1.111-.38-.089-.034-.208-.165-.2-.243.065-.625-.47-.9-.766-1.3-.354-.475-.387-.734.081-1.1-.181-.323-.362-.644-.549-.971.483-.455-.075-.785-.219-1.114a4.407,4.407,0,0,0-.857-1.1,1.832,1.832,0,0,0-.56-.272c.418-.439.476-.834-.023-1.264-.187-.161-.233-.488-.341-.741l.137-.138.787.3a1.337,1.337,0,0,0-.029-.266c-.061-.194-.142-.378-.214-.568-.1-.26-.125-.59-.306-.769-.449-.45-.289-1-.352-1.512-.021-.179.021-.371-.256-.274a8.878,8.878,0,0,0-.422-2.021,4.031,4.031,0,0,1-.27-1.489,1.792,1.792,0,0,0-.268-.55c.249-.049.507-.339.637.154C79.126,59.476,79.3,59.524,79.386,59.5ZM85.392,76.8a4.2,4.2,0,0,1-.023.708c-.09-.059-.25-.11-.26-.183a5.026,5.026,0,0,1-.009-.7C85.207,76.677,85.382,76.726,85.392,76.8Zm-1.435,3.275a6.473,6.473,0,0,1-.718-1.163c-.225-.495,0-.762.622-.717a1.417,1.417,0,0,0,.512,1.275c.711.789.537,1.205-.067,1.849a.852.852,0,0,1-.125.085c-.114.071-.225.145-.337.218.025-.2-.025-.478.09-.6A.626.626,0,0,0,83.957,80.072ZM80.8,78.809a.907.907,0,0,1,.189.131c.628.708,1.252,1.417,1.87,2.137.042.05.029.152.034.235H81.662c-.135-.47-.244-.94-.412-1.39-.068-.179-.277-.3-.4-.466a1.109,1.109,0,0,1-.191-.412C80.649,78.978,80.747,78.886,80.8,78.809Zm-.2-.951a.83.83,0,0,1-.244-.112c-.231-.21-.508-.416-.151-.836a8.224,8.224,0,0,1,.468.681C80.7,77.646,80.62,77.767,80.593,77.858Zm-2.158,2.514c0-.108.108-.214.167-.32.065.1.191.212.181.308a.907.907,0,0,0,.557,1.04c-.148.416-.266.743-.379,1.055C78.292,81.893,78.441,81.112,78.435,80.372Zm-.21-13.993a1.534,1.534,0,0,1-.26-1.769c.235.587.464,1.163.73,1.833C78.552,66.429,78.323,66.472,78.225,66.38Zm.314-2.749c-.154-.433-.289-.816-.426-1.2l.145-.093c.115.1.233.19.356.291l.279-.2c.192.323.366.619.539.915h0C79.248,63.879,78.8,63.45,78.539,63.631ZM77.249,55.4l1.471.092c.083.3.191.686.327,1.193-.3-.252-.526-.438-.668-.557-.277.071-.568.237-.684.154C77.436,56.1,76.981,55.943,77.249,55.4ZM77,61.409c.177.151.35.3.562.481-.1.075-.212.183-.237.168a2.42,2.42,0,0,1-.458-.385C76.841,61.646,76.952,61.5,77,61.409Zm.158,1.654c0,.27,0,.538-.01.809,0,0-.144,0-.219,0v-.809C77,63.067,77.081,63.065,77.158,63.063Zm-5.682-4.342a.293.293,0,0,1,.175-.139c.029-.01.131.083.127.12-.083.655.395,1.093.614,1.629.008.017-.033.055-.071.11l-.412-.311A1.6,1.6,0,0,1,71.476,58.721ZM68.39,57.552a4.072,4.072,0,0,1,.661.453,1.638,1.638,0,0,1,.487.732,1.086,1.086,0,0,0,.942.879c-.115.582-.133.578-.6.265a1.305,1.305,0,0,0-.483-.1c-.166-.53-.312-.992-.449-1.425a3.586,3.586,0,0,1-.753-.46c-.12-.119-.1-.382-.143-.582C68.165,57.4,68.276,57.475,68.39,57.552Zm-.924,5.487c.587-.131,1.207-.243,1.812-.4.689-.186,1.369-.4,2.045-.631s1.332-.478,2.035-.736c.029-.217.07-.51.108-.8.47.662.466.647,1.283.459a.654.654,0,0,1,.489.25,1.72,1.72,0,0,1,.362.681c.138.556.216,1.125.333,1.688a5.876,5.876,0,0,0,.237.653,1.544,1.544,0,0,1-1.186.749,6.579,6.579,0,0,0-1.387.542,4.2,4.2,0,0,1-.8.109,2.962,2.962,0,0,0,.372,2.045c.329-.079.655-.141.967-.243.085-.028.133-.164.194-.259.291-.012.587-.017.88-.045a.852.852,0,0,0,.379-.119c.468-.317.849-.142.992.4.133.5.36.97.53,1.46.054.162.05.345.088.512.058.257.131.511.218.85a2.635,2.635,0,0,1-1.66.735,8.174,8.174,0,0,0-1.344.422c-.048.266-.223.613.175.893.054.038.046.162.065.246.12.548.219,1.1.366,1.644.187.686.41,1.362.618,2.039.073.239.279.611.194.7a1.862,1.862,0,0,1-1.149.7,16.876,16.876,0,0,0-1.7.524,9.441,9.441,0,0,1-1.4.12c-.273-.986-.512-1.86-.76-2.734-.2-.711-.4-1.427-.627-2.13-.149-.45-.374-.872-.534-1.317a12.324,12.324,0,0,1-.362-1.211c-.137-.536-.218-1.086-.376-1.616s-.4-1.019-.562-1.538c-.146-.461-.219-.946-.36-1.409-.154-.507-.349-1-.522-1.5a5.656,5.656,0,0,1-.339-1.1C67.121,63.471,67.344,63.258,67.466,63.04Zm6.853,4.073c-.275-.25-.734-.389-.551-.986A.982.982,0,0,1,74.319,67.113ZM69.6,76.564c-.41.092-.662.025-.631-.412,0-.061.241-.165.252-.154C69.347,76.167,69.46,76.352,69.6,76.564ZM60.38,62.442c.017.483.012.969.012,1.453-.083,0-.164.007-.247.01-.006-.515-.009-1.029-.015-1.546C60.222,62.387,60.378,62.41,60.38,62.442Zm-.269-1.593c0,.5,0,.992.006,1.488-.112-.071-.3-.138-.305-.215-.028-.552-.015-1.1-.012-1.658C60.108,60.421,60.109,60.636,60.111,60.848Zm-.475-1.383c.049.017.1.033.149.051v.937H58.723C59.1,60.045,59.368,59.755,59.637,59.465ZM59.6,65.49a6.22,6.22,0,0,0,.983-.317c.417-.12.842-.212,1.256-.34.119-.038.211-.16.31-.238a1.834,1.834,0,0,1,.867,1.389,12.787,12.787,0,0,0,.615,2.167c.2.668.414,1.333.615,2,.215.715.406,1.439.637,2.149.169.517.4,1.014.582,1.524.115.323.216.657.3.99.133.522.227,1.053.377,1.569s.36,1.028.528,1.546a11.137,11.137,0,0,1,.387,1.371c.073.4-.256.68-.672.78-.656.162-1.3.385-1.948.582-.371.108-.737.235-1.112.322-.42.1-.512-.279-.674-.53a1.57,1.57,0,0,1-.09-.454c-.19.162-.3.254-.517.447-.469-2.28-.919-4.475-1.386-6.75l-.45.426a14.981,14.981,0,0,1-.382-1.727,2.242,2.242,0,0,0-.544-1.234.961.961,0,0,1-.022-.889.783.783,0,0,0,.022-.97,1.137,1.137,0,0,1-.119-.278c-.2-.6-.365-1.218-.6-1.808A1.132,1.132,0,0,1,59.6,65.49ZM64.2,82.6c.1.724.2,1.448.317,2.326-.275-.216-.55-.32-.583-.474-.16-.743-.258-1.5-.363-2.253-.009-.071.087-.16.137-.239.066.075.169.143.2.229C63.956,82.365,63.872,82.629,64.2,82.6Zm.266.109c-.023-.064-.162-.083-.254-.117,0-.243-.015-.485,0-.726a.289.289,0,0,1,.122-.194.191.191,0,0,1,.185.04c.131.244.244.5.355.749.158.358.305.718.461,1.074.045.1.146.2.141.3a5.315,5.315,0,0,1-.12.66,3.442,3.442,0,0,1-.488-.631C64.7,83.5,64.613,83.089,64.467,82.708ZM56.732,63.952a1.259,1.259,0,0,1,.286,1.554c-.124-.521-.246-1.043-.371-1.563A.171.171,0,0,1,56.732,63.952Zm-.418-1.069c.452.354.305.717.315,1.033-.11-.075-.277-.138-.3-.233A3.862,3.862,0,0,1,56.315,62.884Zm-.943-1.607a.719.719,0,0,1,.2-.459c.155-.127.213-.071.64.4l-.534.509h0C55.307,61.768,55.352,61.482,55.372,61.277Zm.384,1.357c-.026-.295-.049-.59-.073-.884C56.052,61.819,56.123,62.118,55.756,62.633Zm-1.924-2.218.683.637-.683.037Zm-1.846,1.263c.124.162.186.251.257.331s.159.172.24.257c-.1.034-.228.119-.307.087a.549.549,0,0,1-.272-.274C51.87,62,51.943,61.872,51.986,61.678ZM47.8,67.634c.235.248.393.414.62.652l-.62.109ZM46.825,65.6c.011-.041.115-.083.171-.075a.2.2,0,0,1,.128.13c.015.174.006.349.006.525l.117.054c-.136.252-.26.508-.412.751-.041.064-.16.083-.243.122-.038-.087-.12-.186-.1-.261C46.584,66.432,46.7,66.016,46.825,65.6Zm.787,3.435c.54-.166,1.114-.221,1.656-.381.474-.138.925-.352,1.388-.534.049-.019.1-.031.15-.047.648-.2,1.291-.428,1.944-.611a10.766,10.766,0,0,1,1.629-.36c.642-.075.865.213,1,.867a9.359,9.359,0,0,0,.566,1.8.993.993,0,0,1-.831,1.472,9.027,9.027,0,0,0-1.295.423c.021.271-.207.656.26.879.022.01.032.061.038.093.107.54.179,1.089.327,1.617.138.491.361.958.532,1.442.13.362.258.728.355,1.1.136.537.224,1.084.367,1.619.115.433.279.855.433,1.311.617.1.643.154.31.755a.392.392,0,0,0-.075.244,5.414,5.414,0,0,0,.388,1.186c.312.551.28.751-.3,1.051a6.262,6.262,0,0,1-2.022.627c-.375.054-.732.229-1.106.3a2.868,2.868,0,0,1-.655-.023c-.268-.724-.542-1.379-.747-2.052-.168-.551-.224-1.136-.383-1.691-.138-.472-.365-.916-.532-1.382-.13-.362-.243-.728-.339-1.1-.136-.524-.226-1.059-.38-1.579-.145-.485-.355-.947-.517-1.427a2.6,2.6,0,0,1-.108-.613c-.073-.919-.506-1.125-1.315-.67a2.751,2.751,0,0,1-.85.149q-.053.8-.109,1.6c-.081-.015-.164-.032-.244-.049v-.564c0-.429.107-.851-.323-1.21-.207-.173-.224-.572-.333-.867-.185-.513-.416-1.014-.55-1.541a6.27,6.27,0,0,1-.089-1.159C46.476,69.467,47.034,69.214,47.612,69.039Zm3.16,19.867c-.047-.046-.119-.1-.116-.152.017-.227.057-.452.094-.714,1.006,1.04,1.315,1.881.954,2.846-.074-.277-.124-.455-.177-.653-.2-.017-.4-.033-.589-.048-.02-.058-.047-.112-.04-.117C51.515,89.6,51.137,89.256,50.772,88.906Zm-.464.808c-.057.033-.114.062-.171.093-.162-.239-.617-.343-.315-.888C50.011,89.226,50.159,89.472,50.308,89.714ZM45.145,66.671a5.513,5.513,0,0,1,.394,1,.919.919,0,0,1-.027.348c-.421.12-.551-.043-.576-.43a8.255,8.255,0,0,0-.227-1.1C44.845,66.539,45.079,66.556,45.145,66.671Zm-.574,2.311c0,.606,0,1.211-.008,1.813,0,.034-.107.1-.156.092s-.132-.081-.134-.126c-.01-.592-.007-1.185-.007-1.777C44.37,68.983,44.47,68.983,44.571,68.982Zm-.943,2.63h.95v.146h-.97C43.615,71.709,43.623,71.66,43.629,71.611Zm-5.612-1.32c.043,0,.085,0,.128,0l.485.871c-.207-.051-.51-.043-.587-.171C37.938,70.814,38.017,70.53,38.017,70.291Zm-.292-1.871c-.057.194-.114.39-.209.715-.177-.414-.3-.686-.414-.96.453-.369.909-.737,1.376-1.116C38.775,67.892,38.548,68.282,37.725,68.42Zm1.842,2.949c-.527.3-.838.225-.923-.2.146-.054.295-.1.5-.18Zm-.034-7.422v.889l-.564.1c-.1.23.02.7-.493.587-.072-.016-.183-.12-.183-.186A2.339,2.339,0,0,1,39.533,63.947ZM33.7,65.51a11.978,11.978,0,0,1,2.7-1.2c.6-.173,1.216-.281,1.881-.431a1.27,1.27,0,0,1-.948,1.029c-.578.136-1.13.367-1.7.523-.6.164-1.206.292-1.816.42-.081.017-.182-.055-.273-.087C33.6,65.679,33.624,65.553,33.7,65.51Zm-.369,7.9c.54-.128,1.059-.348,1.588-.531.065-.021.132-.047.2-.062.469-.117.946-.209,1.406-.355a5.426,5.426,0,0,0,.809-.42c.015-.077.057-.267.1-.455l.1,0c.045.169.093.339.154.565a3.031,3.031,0,0,1,.777-.27c.715-.041,1.436-.04,2.151-.02.205.006.4.16.612.184a2.069,2.069,0,0,0,.549-.083c.1-.018.2-.034.3-.051-.114.6.534.538.771.847a14.377,14.377,0,0,0,1.338,1.351.626.626,0,0,1,.087.186,7.068,7.068,0,0,1,.406,2.8,3.344,3.344,0,0,1-.781,2.166c-.418.57.081.77.246.982.582.747,1.268,1.413,1.9,2.118.545.6,1.083,1.215,1.608,1.837a2.952,2.952,0,0,1,.453.712c.213.5-.085.83-.609.909A14.931,14.931,0,0,0,45.8,86.3a11.368,11.368,0,0,1-1.668.406c-.508.058-.753.274-.783.766-.021.383-.043.762-.065,1.146l-.191.006c-.026-.174-.062-.347-.077-.522-.026-.275.12-.6-.264-.768-.04-.019-.026-.221.008-.323.023-.071.13-.114.189-.177.513-.559.511-.776.022-1.317-.424-.472-.837-.951-1.258-1.425-.459-.514-.922-1.028-1.383-1.54l-.2.1c.078.227.155.454.238.678a1.958,1.958,0,0,1,.111.235c.126.539.215,1.09.372,1.622a11.4,11.4,0,0,0,.534,1.377.749.749,0,0,1-.525,1.13,12.266,12.266,0,0,0-1.334.527c-.016.008-.028.023-.043.029-.557.125-1.11.277-1.672.372-.471.079-.69-.194-.81-.639-.151-.562-.39-1.1-.555-1.662-.154-.516-.241-1.053-.393-1.569-.156-.535-.365-1.051-.534-1.581a7,7,0,0,1-.376-1.357,1.855,1.855,0,0,0-.512-1.165,2.794,2.794,0,0,1-.355-.8c.185-.208.393-.516-.049-.834-.049-.035-.043-.166-.045-.252a4.543,4.543,0,0,0-.609-1.906,4.42,4.42,0,0,1-.27-1c-.144-.658-.29-1.315-.4-1.98C32.854,73.587,33.041,73.481,33.332,73.412ZM48.02,88.286c-.346-.135-.4-1.04-.09-1.554A2.035,2.035,0,0,1,48.02,88.286Zm-2.433,1.86c-.1-.123-.065-.358-.1-.562.5-.1.749.017.734.528a1.336,1.336,0,0,0,.217.953c.169.229.062.666.075,1.009.04-.033.081-.067.12-.1.29.183.58.366.869.547-.029.058-.057.112-.087.165-.333.031-.631.131-.963-.2-.178-.175-.637-.054-.766-.431-.051-.154-.126-.37-.06-.481A1.113,1.113,0,0,0,45.587,90.146Zm-1.64.033-.244.054c-.122-.345-.257-.687-.355-1.042-.022-.075.089-.185.138-.279.06.085.126.165.178.254a2.114,2.114,0,0,1,.23.452A3.439,3.439,0,0,1,43.946,90.179Zm-1.012,2.316v.976l-.134,0v-.982C42.844,92.491,42.889,92.495,42.935,92.495Zm-7.445.254c-.02-.114-.04-.231-.065-.383l.666.148Zm-4.2-24.671c0-.266-.008-.719.007-1.173a1.844,1.844,0,0,1,.108-.416c.1.071.19.149.292.211a4.2,4.2,0,0,1,.645.378,2.1,2.1,0,0,1,.32.51c-.045.046-.09.092-.137.135l-.491-.129a4.457,4.457,0,0,1-1.141,2.1,5.514,5.514,0,0,0-.523.631c-.355.429-.779.29-1.242.19C29.829,69.717,30.5,68.968,31.286,68.079ZM32.2,82.652c-.332-.476-.3-.8.089-1C32.254,82.017,32.23,82.286,32.2,82.652Zm.059,1.515-.175,0c-.156-.289-.314-.574-.545-1,.316.09.615.1.655.206A2.737,2.737,0,0,1,32.256,84.167Zm-.422-2.909c-.531-.314-.491-.3-.25-.836a8.4,8.4,0,0,0,.364-1.3c.041-.154.071-.314.107-.474l.2.034C32.191,79.55,32.585,80.477,31.834,81.258Zm-4.756-7.286a18.352,18.352,0,0,1,1.977-2.252,1.359,1.359,0,0,1,.511-.426c.356-.138.469.085.323.371l-2.905,3.123A.854.854,0,0,1,27.079,73.972Zm-3.315-4.278c-.2.226-.352.388-.591.653-.034-.4-.062-.7-.087-1C23.3,69.453,23.51,69.561,23.764,69.694Zm.145,1.49c.023.045.047.09.07.134-.457.58-.457.58-.966.354C23.354,71.488,23.63,71.336,23.908,71.184Zm-.043,3.91-.446-.867.128-.065C24.061,74.585,24.061,74.585,23.865,75.094ZM21.256,73.26c.03-.041.06-.085.089-.126a1.922,1.922,0,0,0,.491.176.971.971,0,0,0,.588-.092c.3-.209.518-.571.954-.362-.374.6-.741,1.18-1.146,1.824-.051-.186-.1-.369-.19-.7-.277.12-.514.224-.822.359.016-.19-.025-.507.056-.54C21.7,73.615,21.436,73.446,21.256,73.26Zm.882,3.595a6.423,6.423,0,0,0,1.366-.51c.487-.158.994-.262,1.49-.391a11.64,11.64,0,0,0,1.41-.389c.132-.052.169-.347.447-.759.05.177.1.356.109.393l2.053-.325c.132.612.282,1.323.442,2.033.1.424.241.84.305,1.267.059.387-.126.576-.553.655a15.479,15.479,0,0,0-1.486.507,9.765,9.765,0,0,1-1.11.2c.22.32.524.586.039.93-.092.064.141.587.237.942.3-.185.464-.285.627-.389a.669.669,0,0,0,.941.231,2.528,2.528,0,0,1,.536-.224c.143-.048.318-.031.436-.108a.587.587,0,0,1,.937.347c.215.828.433,1.654.67,2.476.03.1.175.175.248.244l-.757,1.049a.915.915,0,0,0-1.27.025.831.831,0,0,1-.406.071c-.651.058-.894.449-.641,1.063a5.621,5.621,0,0,1,.267.508,2.632,2.632,0,0,1,.049.555c.661.092.942-.162.923-.763a5.327,5.327,0,0,1,.043-.627h.177c.043.374.087.751.13,1.107.674-.206,1.311-.4,1.946-.6a.654.654,0,0,1,.793.391,5.934,5.934,0,0,1,.369,1.244c.124.5.249,1,.337,1.511.079.464-.1.68-.623.709a4.567,4.567,0,0,0-1.179.395c-.192.065-.382.129-.574.192-.621.2-1.244.4-1.867.589-.387.12-.775.241-1.168.343-.5.131-1.023.206-1.511.379a.773.773,0,0,0-.382.522c-.077.381.156.814-.3,1.132-.081.058.067.443.132.8-.021.115-.06.372-.116.626-.077.362-.23.655-.661.67-.009-.6-.171-1.224.273-1.768.063-.077.075-.312.028-.342-.454-.285-.111-.549-.054-.863.071-.389.346-.893-.2-1.213-.034-.019-.051-.093-.049-.141a2.936,2.936,0,0,0-.256-1.392,11.114,11.114,0,0,1-.463-1.917c-.182.112-.389.173-.483.312a7.963,7.963,0,0,1-.732,1.175c-.164.165-.578.085-.879.115,0-.067-.03-.185-.011-.193.6-.254.562-.994,1-1.332a1.548,1.548,0,0,0,.582-1.3,1.192,1.192,0,0,0-.6-1.067c.314-.273.393-.57.047-.88a.289.289,0,0,1-.063-.14c-.128-.574-.223-1.163-.391-1.727a13.119,13.119,0,0,0-.526-1.292.933.933,0,0,1-.048-.148c-.12-.564-.209-1.138-.369-1.691-.139-.479-.382-.932-.544-1.407-.108-.317-.154-.656-.244-1.055C21.112,77.064,21.519,76.9,22.138,76.855ZM27.517,81c-.071-.433.2-.67.507-.909A.642.642,0,0,1,27.517,81ZM24.99,97.131c-.426-.089-.58-.372-.363-.678.128-.181-.06-.57.361-.558Q24.989,96.513,24.99,97.131Zm1.082-.281c-.161.27-.242.586-.4.634-.237.069-.637.148-.66-.335C25.308,97.066,25.608,96.981,26.073,96.85Zm-3.156-1.371c.264.165.531.335.682.431-.1.574-.191,1.055-.278,1.536l-.119.014c-.067-.179-.135-.36-.239-.636-.126.237-.207.391-.3.564-.124-.077-.307-.127-.35-.233-.077-.193-.165-.476-.079-.622a5.485,5.485,0,0,1,.719-.828C22.94,95.633,22.928,95.556,22.917,95.479ZM20.868,74.086l.059.107c-.165.136-.331.274-.6.5-.041-.244-.069-.408-.1-.6C20.466,74.086,20.667,74.086,20.868,74.086Zm-8.091-1.34c.165.179.329.359.57.619l-.641.093c-.015-.252-.03-.45-.041-.646ZM8.553,84.572l.22-.045c.128.462.239.847.348,1.236l-.219.056Q8.726,85.2,8.553,84.572ZM9.6,100.333c-.157-.283-.315-.562-.532-.947C9.752,99.523,9.862,99.719,9.6,100.333Zm.224-7.938a.8.8,0,0,1,.059-.277.76.76,0,0,1,.243.117c.2.218.393.449.619.717A.76.76,0,0,1,9.821,92.395Zm1.009,9.735v-1.1C11.556,101.577,11.556,101.583,10.83,102.13Zm1.4-6.593c-.427.25.029.87-.529,1.078-.312.115-.348.785-.959.474-.16-1.161,1.036-1.375,1.4-2.164.06.015.119.034.176.05C12.3,95.169,12.338,95.479,12.235,95.537Zm1.652-1.694c-.459-.2-.793-.809-1.5-.524.119-.772-.493-1.1-.879-1.579a10.066,10.066,0,0,1-.756-1.309c-.1-.175-.187-.424-.345-.493-.353-.151-.264-.429-.316-.689-.168-.875-.422-1.737-.516-2.615a8.7,8.7,0,0,1,.13-1.86c.057-.5.145-1.007.237-1.508a1.4,1.4,0,0,1,.185-.452,14.97,14.97,0,0,1,.946-1.544,5.445,5.445,0,0,1,2.644-2.183c.45-.724,1.265-.41,1.851-.672a4.625,4.625,0,0,1,1.818-.241c.175-.009.341-.175.631-.335a4.747,4.747,0,0,1-.068.564c-.056.225-.241.476-.19.664a7.224,7.224,0,0,0,.5,1.1,1,1,0,0,1,.071.246c.045.25-.032.508.278.711.128.085.108.557.006.784-.081.181-.374.3-.6.379a2.2,2.2,0,0,1-.6.04c-.018.308-.036.589-.062,1.036a3.918,3.918,0,0,0-.3-.412.963.963,0,0,0-1.514.027,3.445,3.445,0,0,0-1.219,2.95,6,6,0,0,0,.476,1.883,5.626,5.626,0,0,0,.99,1.575,6.525,6.525,0,0,0,1.349.886c.785.453,1.362-.081,2.021-.125.233-.017.434-.449.661-.7a3.331,3.331,0,0,0,.589.1c.5,0,.694.218.82.707a8.952,8.952,0,0,0,.547,1.224,1.528,1.528,0,0,1,.051.387c.059.443.119.886.2,1.51-.282.154-.734.4-1.185.647a2.974,2.974,0,0,1-.595.308c-.815.214-1.637.393-2.451.6a3.61,3.61,0,0,0-.555.252,1.689,1.689,0,0,0-2.137-.345A5.852,5.852,0,0,0,13.887,93.843ZM15.7,85.694c-.312.133-.448.07-.468-.312-.014-.277,0-.557,0-.836.048.008.1.019.143.027C15.477,84.94,15.585,85.311,15.7,85.694ZM21.179,99.97h0c.391.269-.027.464-.1.674-.04.11-.229.162-.349.243C20.535,100.5,20.643,100.28,21.179,99.97Zm0-.015a.8.8,0,0,1,.539-.9C21.852,99.588,21.58,100.012,21.183,99.954Zm-2.49-3.371c-.225.25-.369.412-.592.66v-.687C18.285,96.565,18.453,96.573,18.693,96.583Zm-3.739,1.28a9.805,9.805,0,0,1,1.067.631c.1.073.059.335.083.512q-.155-.09-.312-.185a4.747,4.747,0,0,1-.66-.426,2.184,2.184,0,0,1-.323-.5C14.858,97.886,14.908,97.875,14.955,97.863Zm1.163,4.71c-.2.5-.416,1-.649,1.482-.023.05-.175.039-.274.054a5.862,5.862,0,0,1-.325-2.012c.035-.287.066-.537.477-.441a5.218,5.218,0,0,0-.16.782,4.283,4.283,0,0,0,.079.731l.141-.006c.141-.379.278-.759.429-1.134.026-.061.119-.142.171-.137a.221.221,0,0,1,.15.16A1.281,1.281,0,0,1,16.118,102.573Zm1.287,1.048c-.473.32-.713.231-.926-.339,1.144-.37,2.256-.73,3.393-1.1.05-.194.1-.391.152-.591l.128,0c.062.179.124.36.186.541l.144.121c.043-.106.06-.269.139-.31a2.8,2.8,0,0,0,1.1-.924l.158.6c.532-.162,1.065-.323,1.6-.493.1-.029.173-.133.269-.151.789-.117,1.577-.229,2.367-.327a2.261,2.261,0,0,1,.477.043c-.018.112-.016.173-.03.177-.523.146-1.055.266-1.569.439-.459.154-.9.373-1.351.543a10.338,10.338,0,0,1-1.093.333c-.542.138-1.1.223-1.634.387a8.2,8.2,0,0,0-1.047.481,1.162,1.162,0,0,1-.239.1c-.629.12-1.261.231-1.891.35A.853.853,0,0,0,17.405,103.62Zm1.036,2.975.971.92C18.63,107.6,18.332,107.3,18.441,106.595Zm2.614,3.45c-.1-.085-.094-.3-.134-.46.041,0,.085-.009.126-.015.16.131.32.262.606.493C21.361,110.063,21.15,110.124,21.055,110.045Zm13.068,10.238c-.013.1-.171.179-.271.266,0-.428-.012-.855.008-1.278,0-.1.114-.2.175-.3.052.1.145.189.145.283A6.367,6.367,0,0,1,34.123,120.283Zm11.558,6.238c-.351-.489.23-.577.327-.9C46.261,126.049,46.261,126.049,45.681,126.521Zm8.969.612-.134.017a2.978,2.978,0,0,0-.111-.4,3.22,3.22,0,0,0-.25-.408c.2-.023.333-.036.5-.054C54.65,126.594,54.65,126.864,54.65,127.133Zm7.6,2.12c-.059,0-.117,0-.175-.006v-1.369c.059,0,.116,0,.175,0Zm-6.587-1.5c-.034.05-.243.054-.25.034-.143-.385-.269-.774-.412-1.211C55.547,126.7,55.9,127.411,55.668,127.75Zm-.6.331.6.183c-.134.148-.261.291-.414.464a.258.258,0,0,0-.145.054C55.09,128.518,55.08,128.32,55.066,128.081Zm36.514-7.623c-.543-.97-.543-.97-.223-1.161.144.377.283.743.42,1.107C91.709,120.422,91.645,120.441,91.58,120.458Zm4.33-5.378c-.021-.271-.04-.543-.061-.857C96.274,114.408,96.3,114.614,95.91,115.08Zm1.281,1.042a1.941,1.941,0,0,1-.374-.316c-.036-.048.056-.191.09-.291a.966.966,0,0,1,.218.154,1.738,1.738,0,0,1,.175.295ZM109.949,97.2c-.175-.368-.728-.485-.451-1.009A.752.752,0,0,1,109.949,97.2Zm1.184.916a.38.38,0,0,1-.431-.439c0-.073.1-.142.15-.216.171.154.343.312.551.506C111.281,98.034,111.208,98.109,111.133,98.114ZM113.3,84.389a.915.915,0,0,0-.135,1.378.48.48,0,0,1,.046.42,14.391,14.391,0,0,1-.733,1.423.9.9,0,0,0,0,1.115,1.4,1.4,0,0,1,.117.485l-.127.046c-.1-.119-.21-.243-.437-.5-.146.549-.243.98-.375,1.4-.137.443-.308.878-.464,1.313-.035.093-.083.181-.116.275-.137.414-.258.834-.41,1.242-.181.485-.389.961-.585,1.44-.114.277-.165.639-.37.809-.356.295-.2.628-.221.949h0c-.218.244-.564.47-.613.745-.117.7-.818,1.155-.712,1.914,0,.034,0,.088-.017.1a3.136,3.136,0,0,0-.978,1.365c-.142.277-.243.574-.345.816-.289.308-.574.608-.882.94.148.115.258.2.473.373-1.128,0-1.171.994-1.644,1.542a34.918,34.918,0,0,0-2.145,2.763,25.164,25.164,0,0,1-2.226,2.523c-1,1.09-1.993,2.185-3.05,3.215a9.46,9.46,0,0,1-1.044,1.013c-.449.316-.809.717-1.242,1.036-.626.46-1.277.889-1.91,1.344-.256.183-.477.414-.731.6-.574.424-1.159.828-1.735,1.252-.51.372-1,.768-1.519,1.132a5.908,5.908,0,0,1-.724.383c-.872.449-1.754.88-2.615,1.346-.7.379-1.384.8-2.083,1.188a1.9,1.9,0,0,1-.526.112c-.033.158-.069.322-.121.572-.555-.745-.913.192-1.488,0,.171.655.559,1.219.158,2.028a5.746,5.746,0,0,1-.462-.889.953.953,0,0,0-1.221-.433,11.484,11.484,0,0,1-1.2.558c-.5.2-1.005.383-1.51.574a.614.614,0,0,1-.1.029c-.616.125-1.238.225-1.847.379s-1.2.389-1.816.555a4.646,4.646,0,0,1-.8.086c-.1.256-.189.487-.289.743.416.485.379.672-.268,1.067l-.5-1.523c-.441.085-.907-.169-1.328.3-.137.154-.6,0-.909.023-1.173.1-2.343.208-3.512.337-.133.014-.248.181-.373.277a1.54,1.54,0,0,0-1.46-.194c-.085.054-.169.164-.25.162-.969-.034-1.934-.089-2.9-.14-.371-.02-.741-.077-1.112-.087-1-.023-2.005.006-3-.058a13.376,13.376,0,0,1-2.869-.368c-.6-.175-1.184-.167-1.769-.283-.705-.135-1.392-.368-2.085-.558a.924.924,0,0,0-.1-.02c-.66-.12-1.329-.2-1.976-.372-.485-.129-.937-.381-1.414-.549-.4-.139-.8-.244-1.21-.352-.856-.231-1.729-.406-2.563-.7a14.331,14.331,0,0,1-1.556-.821,8.854,8.854,0,0,0-.871-.347c-.383-.142-.767-.279-1.185-.431-.069.256-.124.458-.178.658l-.149-.006a2.242,2.242,0,0,1-.065-.468c.034-.493-.262-.653-.672-.753a2.97,2.97,0,0,1-.613-.283c-.442-.227-.893-.443-1.319-.7s-.8-.57-1.225-.818a2.206,2.206,0,0,0-.891-.36c-.442-.036-.7-.165-.68-.653-.29-.033-.549-.059-.839-.09-.047-.174-.1-.351-.158-.56-.252-.021-.51-.044-.772-.065-.284-.787-.348-.81-1.172-.88a.806.806,0,0,1-.477-.389,1.3,1.3,0,0,0-.727-.666c-.146-.044-.225-.312-.359-.516l-.467-.077c-.043-.175-.085-.343-.128-.52-.485-.208-1.452.216-1.237-.863-.443-.165-.855-.316-1.265-.474a1.729,1.729,0,0,1-.278-.16,2.339,2.339,0,0,1,.322-.168,2.383,2.383,0,0,1,.358-.05c-.392-.426-.721-.812-1.084-1.169-.694-.683-1.465-1.3-2.09-2.035a1.888,1.888,0,0,0-1.887-.832c-.025-.551-.045-1.017-.069-1.525-.441-.041-.635-.3-.659-.749-.008-.137-.187-.26-.283-.391-.391-.529-.781-1.063-1.209-1.644.269-.077.4-.3.623.073a11.885,11.885,0,0,0,1.13,1.417,1.494,1.494,0,0,0-.59-1.825c.581-.165,1.095-.3,1.6-.464.462-.154.911-.353,1.367-.522a1.81,1.81,0,0,1,.3-.073c.552-.12,1.112-.214,1.656-.364.664-.181,1.315-.408,1.972-.614q1.027-.318,2.054-.632c.764-.229,1.544-.412,2.291-.686a11.027,11.027,0,0,1,1.552-.574,1.785,1.785,0,0,1,1.816.8c.3.327.536.776,1.059.84a.135.135,0,0,1,.09.05,4.925,4.925,0,0,0,1.786,1.621,6.545,6.545,0,0,0,1.649,1.178,7.552,7.552,0,0,1,1.2.82c.64.378,1.313.7,1.964,1.055.3.168.589.362.877.555s.832-.112.867-.508a5.06,5.06,0,0,0,0-.508c-.6-.383-1.116-.732-1.648-1.044-.444-.262-.931-.454-1.362-.734a17.192,17.192,0,0,1-2.468-1.771c-.789-.734-1.7-1.336-2.549-2a3.626,3.626,0,0,1-.76-.7c-.059-.085.178-.379.258-.539l.615.27c.124-.333.249-.668.417-1.113.315.545.6.651.952.281a.371.371,0,0,1,.187-.083c.56-.125,1.132-.218,1.68-.383.448-.135.865-.37,1.305-.531a11.7,11.7,0,0,1,1.149-.35c.538-.139,1.093-.223,1.62-.391a8.611,8.611,0,0,0,1.119-.541c.047.034.151.1.217.15l1.776-.6v-.87a6,6,0,0,0-2.177.545,7.611,7.611,0,0,1-.9.164c-.051.26-.1.537-.16.81h-.12c-.047-.173-.1-.347-.159-.574a2.448,2.448,0,0,0-.295.12c-.085.05-.147.162-.234.181-.574.127-1.157.206-1.723.358-.538.142-1.057.354-1.585.535-.032.011-.063.031-.094.039-.553.125-1.112.219-1.652.381-.481.141-.935.374-1.41.534-.228.077-.484.063-.721.125-.45.112-.9.229-1.339.376-.469.156-.924.358-1.394.516q-.943.318-1.9.591c-.491.138-1,.229-1.488.374-.557.162-1.1.377-1.657.535a7.54,7.54,0,0,1-.968.135c.053-.2.049-.393.12-.426a3.719,3.719,0,0,1,1.272-.6,7.682,7.682,0,0,0,1.632-.524,1.179,1.179,0,0,1,.253-.062,2.321,2.321,0,0,0,1.622-.622.222.222,0,0,1,.1-.033c.633-.108,1.275-.177,1.9-.335a15.025,15.025,0,0,0,1.439-.522c.341-.125.681-.26,1.031-.356.489-.137.992-.225,1.479-.37.552-.164,1.092-.37,1.64-.551.365-.121.729-.246,1.1-.343.551-.138,1.111-.243,1.661-.381a7.254,7.254,0,0,0,1.136-.358c.1-.043.136-.289.159-.451.032-.227.026-.458.036-.686.06,0,.116,0,.176-.007.033.275.068.549.12.968l.924-.333c.064-.023.126-.046.192-.065.6-.2,1.193-.393,1.792-.577a1.5,1.5,0,0,1,.416-.048c.509-.017.7-.331.75-.782.017-.173-.013-.352,0-.526.116-1.252.224-2.507.374-3.757.017-.14.28-.254.429-.379l.145.119v1.19l.591.1c.006.037.013.073.018.11l-.6.206c.1.372.209.743.316,1.117-.043.023-.085.046-.128.071l-.308-.252c-.169.223-.348.431-.491.664a.484.484,0,0,0-.027.36c.147.456.319.9.482,1.356a4.11,4.11,0,0,1,1.533-.582,10.573,10.573,0,0,0,1.829-.555c.5-.148,1.008-.25,1.5-.4.548-.165,1.086-.364,1.633-.541.416-.133.838-.254,1.258-.379.619-.187,1.238-.376,1.857-.562a4.881,4.881,0,0,1,1.207-.347,1.547,1.547,0,0,0,1.189-.692c.241.379.495.466.775.093a.166.166,0,0,1,.085-.052c.532-.121,1.068-.225,1.594-.364.369-.1.724-.246,1.13-.389.035.685-.218,1-.728,1.036a4.537,4.537,0,0,0-1.9.586.432.432,0,0,1-.1.027l-1.921.412c-.038.143-.083.3-.138.514-.35-.237-.689-.426-1.011-.009-.034.042-.13.039-.2.056-.562.119-1.129.214-1.686.362-.722.191-1.439.4-2.145.645a12.611,12.611,0,0,0-1.205.554.435.435,0,0,1-.094.041c-.562.11-1.131.187-1.682.337-.485.135-.942.372-1.423.527a6.6,6.6,0,0,1-.935.151c.059.283.066.782.183.809a3.315,3.315,0,0,0,1.1-.065c.053,0,.089-.121.145-.135.538-.131,1.08-.241,1.616-.377.422-.11.836-.25,1.252-.377.622-.189,1.246-.366,1.862-.576.51-.175,1.007-.385,1.511-.576a.9.9,0,0,1,.149-.042c.507-.11,1.02-.2,1.522-.335a19.369,19.369,0,0,0,2.22-.659,10.832,10.832,0,0,1,2.157-.639,11.557,11.557,0,0,0,1.358-.537c.531-.169,1.078-.275,1.66-.417,0-.327.277-.717-.219-.963-.023-.009-.029-.062-.036-.095-.112-.606-.216-1.213-.341-1.816-.039-.192-.16-.37-.19-.56a2.115,2.115,0,0,1-.012-.8c.021-.081.365-.1.563-.1a.308.308,0,0,1,.233.171c.142.414.252.836.383,1.256.108.343.225.687.362,1.022.015.033.2,0,.306-.006-.1-.291.123-.218.277-.27.452-.154.891-.35,1.342-.516a4.864,4.864,0,0,1,1.123-.36,2.707,2.707,0,0,0,1.743-.641.207.207,0,0,1,.095-.039c.651-.112,1.308-.192,1.948-.343a14.322,14.322,0,0,0,1.417-.481,2.307,2.307,0,0,1,.287-.117c.543-.125,1.1-.21,1.629-.368s1.019-.4,1.536-.566c.458-.148.94-.221,1.4-.358.508-.15,1.007-.337,1.51-.507a1.026,1.026,0,0,1,.347-.1c.464.015.874-.025.853-.643.277.135.52.25.76.368l.151-.121c-.1-.611-.2-1.217-.3-1.825.2.185.47.343.574.574.349.766.859.915,1.683.472a.671.671,0,0,1,.137-.071c.584-.125,1.173-.216,1.743-.377.451-.129.876-.345,1.317-.518a.787.787,0,0,1,.3-.07,2.583,2.583,0,0,0,1.6-.572c.048-.036.131-.029.2-.04.666-.127,1.342-.227,2-.389.726-.181,1.44-.414,2.157-.631.668-.2,1.338-.4,2-.624.508-.177,1-.416,1.508-.585.42-.143.865-.212,1.29-.341.62-.185,1.225-.41,1.847-.589.481-.14.98-.214,1.456-.364s.93-.385,1.407-.539a2.817,2.817,0,0,1,.824-.11c.366-.006.42-.225.439-.514a1.949,1.949,0,0,1,.11-.4c.045.139.087.281.129.422.014.048.023.1.059.256.218-.1.418-.177.612-.266.044-.02.075-.077.121-.085.557-.123,1.123-.214,1.673-.369.489-.139.953-.362,1.438-.52.451-.148.909-.27,1.369-.383a5.876,5.876,0,0,1,.729-.077c-.113-.185-.191-.313-.348-.57.287.052.545.024.61.123.281.429.395.09.491-.026.11.179.22.357.329.532,0,.4-.5.337-.974.358-.052.177-.1.339-.162.539-.343-.354-.649-.3-1.032-.058a4.492,4.492,0,0,1-1.144.393c-.468.131-.945.219-1.407.358-.532.16-1.051.358-1.577.539-.063.021-.129.054-.2.07-.539.121-1.086.219-1.619.367a8.052,8.052,0,0,0-1.976.657,3.819,3.819,0,0,1-1.038.281c-.471.142-.928.335-1.39.51a1.306,1.306,0,0,1-.2.071c-.557.127-1.123.219-1.669.385-.468.139-.911.358-1.367.541a.761.761,0,0,1-.248.081,5.118,5.118,0,0,0-1.9.553,14.9,14.9,0,0,1-1.452.379c-.554.168-1.092.4-1.646.56-.582.169-1.177.293-1.81.451-.039.154-.087.342-.152.616-.323-.377-.626-.6-.924-.085-.011.019-.063.017-.1.023-.614.115-1.24.189-1.84.354-.526.142-1.021.389-1.533.577-.108.04-.258-.011-.354.04a4.558,4.558,0,0,0-.541.379c.148.191.277.518.446.539a2.479,2.479,0,0,0,.882-.2c.05-.015.092-.058.138-.067.643-.133,1.288-.262,1.968-.4.042-.156.088-.335.146-.547.2.044.395.626.574.029a.154.154,0,0,1,.133-.054c.793.293,1.427-.31,2.16-.391a10.869,10.869,0,0,0,2.174-.612c.847-.285,1.679-.613,2.515-.924.077-.027.14-.092.214-.119a1,1,0,0,1,.466-.131.426.426,0,0,1,.231.339c-.056.445.135.911-.246,1.336a2.676,2.676,0,0,0-.349,1.025c-.135.471-.214.961-.389,1.415-.25.649-.564,1.277-.853,1.914-.116.252-.235.5-.349.755a20.548,20.548,0,0,1-1.046,2.251,1.684,1.684,0,0,0-.25.689c.61,0,.658-.591.9-.94a12.359,12.359,0,0,0,.884-1.637c.16-.331.246-.7.4-1.034.173-.4.393-.776.566-1.172a8.066,8.066,0,0,0,.35-.975c.137-.462.229-.939.37-1.4.166-.551.362-1.092.543-1.639.027-.079.042-.164.067-.243.112-.351.225-.7.335-1.053.1.013.2.029.3.044-.021.389-.025.776-.075,1.161a3.464,3.464,0,0,1-.206.606c-.2.589-.395,1.175-.6,1.76-.115.343-.227.686-.349,1.026-.335.945-.629,1.916-1.028,2.833-.323.743-.888,1.39-1.134,2.149-.156.478-.67.915-.387,1.513h-.455c-.2.285-.323.485-.468.678-.476.637-.479.857.02,1.417a5.141,5.141,0,0,0,.464.4c.349-.574.7-1.152,1-1.644-.129-.266-.219-.456-.31-.645.637.133.81,0,1.007-.591a5.454,5.454,0,0,1,.524-.9c.148-.262.283-.534.42-.8.3-.584.61-1.161.888-1.758.16-.343.241-.72.383-1.071.162-.393.356-.774.533-1.159.027-.061.046-.127.07-.192.2-.616.418-1.227.6-1.849.062-.214-.006-.466.059-.68.175-.586.393-1.159.581-1.74.04-.129,0-.291.048-.414.1-.249.181-.591.377-.7a6.443,6.443,0,0,1,1.231-.387c.643-.2,1.278-.4,1.922-.6.428-.127.864-.231,1.292-.362.62-.187,1.236-.389,1.854-.581.364-.116.726-.233,1.1-.331.485-.127.982-.219,1.461-.366.537-.162,1.059-.389,1.6-.558.483-.148.982-.243,1.469-.377.223-.062.429-.175.653-.235a6.063,6.063,0,0,1,.645-.1c0,1.109.059,2.164-.034,3.2-.031.35-.283.693-.287,1.113s.264.558.661.859c0-.651-.039-1.169.009-1.679.052-.56.214-1.109.268-1.667.05-.507.023-1.019.029-1.527,0-.175,0-.348,0-.557l.709-.067c-.114.631-.262,1.192-.3,1.758-.065.837-.067,1.681-.062,2.52,0,.114.194.225.306.345-.709.4-.861,1.105-.372,1.575-.377.3-.377.3,0,.635C113.22,82.983,113.166,83.372,113.3,84.389Zm1.042-.612-.491-.462c.25,0,.448-.058.524.015s.067.281.092.429C114.424,83.763,114.381,83.769,114.341,83.777Zm1.267-5.59c-.05-.056-.148-.114-.146-.168.014-.243.054-.483.087-.724.054,0,.112,0,.168,0,.025.231.065.46.067.692C115.783,78.054,115.669,78.123,115.607,78.187Zm2.69-5.053c-.027-.038-.056-.072-.081-.11-.246.164-.5.311-.735.495-.158.126-.246.349-.495.09-.056-.057-.3.063-.3.063-.526-.429-.982-.792-1.421-1.173-.077-.067-.085-.213-.123-.322h-.672c.042-.248.073-.433.1-.617l.127-.046.456.645a1.117,1.117,0,0,1,.306.015c.387.13.77.274,1.236.442.016.049.064.211.114.367l1.783-.523C118.451,72.785,118.374,72.96,118.3,73.134Zm.268-10.485c.065-.229.117-.414.169-.6.189.165.377.333.678.6Zm.241,7.061c-.306-.745-.185-1,.52-.954C119.141,69.088,118.992,69.365,118.806,69.71Zm.668-2.644c-.054,0-.11,0-.166,0V65.3l.166,0Zm2.863,1.216c-.162.04-.323.081-.551.136.127.4.244.761.366,1.138-.732.145-1-.079-.994-.73,0-.35,0-.7.008-1.052a5.439,5.439,0,0,0-.586-2.391,4.482,4.482,0,0,1-.171-.933c-.15.359-.237.568-.323.779-.172-.162-.345-.322-.443-.412.194-.4.385-.745.52-1.112a.42.42,0,0,0-.2-.351c-.379-.144-.416-.414-.387-.759a6.077,6.077,0,0,0-.63-2.679c-.036-.1-.164-.158-.137-.278-.041-.154-.079-.308-.121-.459-.014-.05-.05-.091-.059-.14-.11-.542-.185-1.093-.337-1.624-.14-.489-.379-.948-.535-1.433a5.546,5.546,0,0,1-.135-.858l-.589-.111a1.169,1.169,0,0,0,.158-1.169c-.241-.933-1.011-1.725-.785-2.78a.442.442,0,0,1,.059-.109c.333-.031.507.083.6.453.135.525.372,1.019.551,1.535.125.363.243.73.337,1.1.138.544.221,1.1.387,1.636a10,10,0,0,0,.487,1.053,2.023,2.023,0,0,1,.094.395c.125.629.212,1.27.383,1.885a4.31,4.31,0,0,0,.639,1.591c.358.432.158.858.281,1.264.154.519.36,1.021.541,1.532.023.065.037.135.056.2.206.682.433,1.36.618,2.049a13.9,13.9,0,0,1,.347,1.629c.058.4-.1.9.692.854A1.642,1.642,0,0,0,122.337,68.282Z" transform="translate(0.002 -17.933)"/><path class="a" d="M220.843,83.871a2.478,2.478,0,0,1-.94.422c-.668.156-1.354.247-2.031.369-.045.008-.079.057-.143.109.09.121.173.232.256.345-.014.051-.025.1-.039.152a4.216,4.216,0,0,1-1.038-.083c-.491-.164-.884.139-1.326.175a3.2,3.2,0,0,0-.655.241c-.095.031-.216-.015-.31.019-.524.184-1.036.4-1.569.566-.5.152-1.028.217-1.527.374-.437.14-.838.4-1.277.525a.915.915,0,0,1-1.057-.19,18.633,18.633,0,0,0-1.552-1.36c-.452-.4-.9-.809-1.354-1.2a8.2,8.2,0,0,0-.836-.636c-.418-.273-.868-.495-1.28-.773-.516-.349-.982-.779-1.519-1.087-.7-.4-1.452-.71-2.178-1.065-.248-.122-.487-.268-.734-.392-.545-.276-1.1-.54-1.644-.816-.169-.085-.37-.312-.483-.27-.6.218-.943-.35-1.417-.487-.364-.106-.539-.228-.7.007a9.92,9.92,0,0,0-1.479-.791,14.836,14.836,0,0,0-1.889-.386c-.052-.009-.1-.024-.154-.038-.587-.181-1.171-.395-1.768-.534a13.417,13.417,0,0,0-1.822-.308c-1-.092-1.995-.147-2.994-.275a39.723,39.723,0,0,0-4.369-.067c-.426-.008-.721.069-.705.528l-1.155.473c-.022-.315-.032-.484-.053-.8l-3.2.45c.079.25.13.44.2.621s.162.363.286.634a1.448,1.448,0,0,1,.512-.224c.406-.008.692-.67,1.181-.138.085-.427.2-.758.755-.536l-.339.548c.779-.045,1.477-.075,2.173-.13.215-.018.421-.126.638-.148a42.562,42.562,0,0,1,5.448.28,5.922,5.922,0,0,1,1.051.065c.826.164,1.642.386,2.469.553.737.15,1.484.256,2.228.382a.29.29,0,0,1,.1.026c.439.3.87.457,1.311-.181.046.315.073.507.1.7.485.134.949.254,1.409.394a9.065,9.065,0,0,1,1.03.363c.337.15.645.371.984.517.6.256,1.217.457,1.81.721.528.233,1.03.519,1.585.8.169.119.379.282.608.416s.476.2.68.349c.4.28.757.611,1.152.893.77.546,1.56,1.065,2.332,1.613a13.033,13.033,0,0,1,1.182.941c.318.284.543.7.9.909.393.237.173.387.056.683-.576-.459-1.113-.864-1.625-1.3-.32-.274-.52-.735-1.063-.595.017.1.008.226.067.282.46.433.942.845,1.4,1.282a.37.37,0,0,1,.036.3,8.5,8.5,0,0,1-.938.333,3.53,3.53,0,0,1-.564.073c.146.192.241.317.335.442a3.45,3.45,0,0,0-.51.139c-.323.145-.532-.243-.942-.085a22.237,22.237,0,0,1-2.834.724,1.231,1.231,0,0,0-.145.049c-.458.186-.909.4-1.382.544-.527.156-1.08.241-1.619.357a.891.891,0,0,0-.144.053c-.495.184-.982.395-1.487.543-.522.151-1.067.218-1.588.37-.616.18-1.221.4-1.825.626-.185.07-.466.181-.491.313a3.972,3.972,0,0,0,.033.955c.412-.091.953.04.953-.688.424.4.422.4.915.1a.646.646,0,0,1,.194-.066L196.2,92.5a.726.726,0,0,0,.194-.07,2.911,2.911,0,0,1,1.561-.536,1.18,1.18,0,0,0,.412-.067c.549-.181,1.086-.39,1.637-.556a14.562,14.562,0,0,0,1.465-.379,4.722,4.722,0,0,1,1.906-.587.565.565,0,0,0,.206-.041l2.089-.727c.027-.1.069-.282.135-.549.26.143.477.365.674.349a2.457,2.457,0,0,0,1.049-.322,4.952,4.952,0,0,1,1.958-.643,21.071,21.071,0,0,0,2.463-.631c.016,0,.027-.02.042-.026.508-.185,1.013-.382,1.525-.548.428-.139.869-.229,1.3-.357.645-.194,1.288-.394,1.928-.607.4-.132.791-.29,1.236-.453.027.01.183.128.285.091.456-.168.886-.423,1.35-.562.56-.167,1.146-.246,1.72-.367a1.3,1.3,0,0,0,.237-.117l-.628-.31c.314-.191.582-.354.851-.522A.63.63,0,0,0,220.843,83.871Z" transform="translate(-120.286 -57.903)"/><path class="a" d="M228.261,130.571v-.015l-.01,0Z" transform="translate(-156.076 -94.944)"/><path class="a" d="M321.035,100.315v0l0,0Z" transform="translate(-219.519 -74.263)"/><path class="a" d="M54.238,121.882a1.281,1.281,0,0,0,.156-.017l1.874-.6c.05-.015.1-.011.154-.031a6.423,6.423,0,0,1,1.546-.547,4.431,4.431,0,0,0,1.808-.68c.149-.083.278-.249.431-.274.84-.134,1.684-.235,2.4-.331.168-.5.286-.865.423-1.277-.38.065-.753.126-1.155.2-.055-.286-.192-.607.162-.9.073-.06.028-.3-.014-.438a.291.291,0,0,0-.268-.075.754.754,0,0,0-.235.3.728.728,0,0,0-.023.26,2.284,2.284,0,0,1-.9,1.6c0-.472-.148-.969.032-1.159.366-.393.215-.633-.077-.968l.544-.117c.156-.617.272-1.2.453-1.761.158-.49.4-.954.585-1.436.14-.354.227-.733.391-1.074.256-.532.576-1.033.834-1.566s.469-1.084.71-1.622a4.275,4.275,0,0,1,.357-.682,14.393,14.393,0,0,0,1.431-2.083,16.89,16.89,0,0,1,1.5-2.022,4.6,4.6,0,0,1,1.309-1.5c.44-.284.685-.854,1.068-1.245.7-.71,1.43-1.385,2.156-2.066.435-.41.867-.822,1.328-1.2.555-.454,1.125-.884,1.708-1.3s1.165-.8,1.754-1.187c.387-.254.783-.495,1.183-.729.43-.253.867-.487,1.3-.732-.022-.067-.043-.137-.064-.2a10.772,10.772,0,0,1-1.5-.014,2.013,2.013,0,0,0-1.511.525q-.731.521-1.467,1.033c-.57.4-1.152.779-1.711,1.189-.3.219-.564.481-.846.724-.574.493-1.159.969-1.718,1.481-.6.551-1.195,1.123-1.774,1.7-.459.462-.915.929-1.331,1.43s-.8,1.07-1.217,1.633c.032.047.109.164.143.213-.32.229-.75.371-.82.617a4.913,4.913,0,0,1-1.083,1.717,23.679,23.679,0,0,0-1.494,2.5,13.412,13.412,0,0,0-.722,1.376c-.294.586-.595,1.17-.856,1.77-.164.379-.25.789-.39,1.179-.188.519-.393,1.031-.594,1.546a.586.586,0,0,1-.106.222.51.51,0,0,0-.13.69,1.9,1.9,0,0,0-.344.558,11,11,0,0,0-.317,1.159c-.124.557-.225,1.122-.327,1.644-.387.071-.686.12-.986.186s-.621.141-.929.228c-.39.109-.781.22-1.165.351-.529.179-1.049.374-1.574.565a2.949,2.949,0,0,0-.922.369.852.852,0,0,1-.659.231c-1-.015-1.616.471-1.689,1.289a2.345,2.345,0,0,0,1.358-.238A7.869,7.869,0,0,1,54.238,121.882Z" transform="translate(-34.919 -70.213)"/><path class="a" d="M51.042,183.407h-.015v0l.013.01Z" transform="translate(-34.891 -131.083)"/><path class="a" d="M228.258,130.573l-.01-.011,0,0Z" transform="translate(-156.072 -94.948)"/><path class="a" d="M171.805,128.4a3.809,3.809,0,0,1-.637.271c-.568.077-1.028.509-1.662.414-.3-.045-.633.18-.953.278-.379.119-.76.231-1.14.35-.593.19-1.181.4-1.781.572-.484.142-.984.237-1.468.375-.371.106-.734.247-1.1.379-.446.162-.884.357-1.339.485-.567.159-1.153.258-1.727.4-.354.091-.705.2-1.05.329-.476.171-.933.4-1.416.539-.548.159-1.125.215-1.671.38-.68.207-1.343.478-2.069.745-.013.057-.051.207-.063.254a3.879,3.879,0,0,0-1.021-.038c-.639.152-1.258.391-1.885.594-.064.019-.126.045-.19.066-.548.184-1.1.365-1.644.551a7.132,7.132,0,0,0-.832.311.349.349,0,0,0-.013.323,8.664,8.664,0,0,0,.7.536c.567-.189,1.1-.386,1.652-.542.514-.146,1.067-.186,1.56-.38a5.068,5.068,0,0,1,2.147-.6.467.467,0,0,0,.156-.017,20.708,20.708,0,0,1,2.457-.876,13.516,13.516,0,0,0,2.184-.638,21.268,21.268,0,0,1,2.41-.688c.066-.017.132-.037.2-.06.545-.184,1.079-.4,1.633-.543.6-.151,1.219-.232,1.83-.345a.467.467,0,0,0,.094-.04c.418-.183.83-.376,1.255-.548s.836-.312,1.282-.476c-.1-.124-.192-.235-.271-.329.187-.2.331-.365.547-.6.042.323.073.533.1.776.7-.13,1.353-.252,2.008-.376a.712.712,0,0,0,.092-.043c.474-.187.934-.41,1.421-.552.539-.158,1.1-.237,1.648-.369.079-.02.135-.14.2-.218a2.357,2.357,0,0,0-.4-.218C172.633,128.706,172.327,128.225,171.805,128.4Z" transform="translate(-101.277 -93.444)"/><path class="a" d="M92.39,47.062c-.507.262-.965.615-1.462.9-.441.252-.928.429-1.355.706-.736.475-1.441,1-2.154,1.506-.59.421-1.187.831-1.755,1.277-.331.26-.566.725-.928.847a3.2,3.2,0,0,0-1.065.74c-.779.656-1.57,1.3-2.331,1.975a.9.9,0,0,0-.389.957,1.766,1.766,0,0,0,.1.217,1.11,1.11,0,0,0,.243-.126c.781-.7,1.55-1.409,2.338-2.1A7.681,7.681,0,0,0,84.929,52.9a2.649,2.649,0,0,1,1.081-.916,14.309,14.309,0,0,0,1.825-1.232c.747-.517,1.488-1.044,2.246-1.546.367-.243.77-.428,1.148-.659a6.628,6.628,0,0,1,1.709-.98,3.143,3.143,0,0,0,.637-.333,17.845,17.845,0,0,1,1.6-.846.787.787,0,0,0,.572-.95c-.416.215-.781.418-1.158.6C93.859,46.384,93.107,46.691,92.39,47.062Z" transform="translate(-55.33 -36.741)"/><path class="a" d="M36.706,123.578c.156-.521.267-1.031.46-1.509.252-.617.576-1.206.858-1.812.329-.7.646-1.411.968-2.117.113-.25.327-.511.31-.754-.05-.717.7-1,.794-1.628a1.1,1.1,0,0,1,.169-.312c-.183-.013-.455-.109-.534-.024a4.731,4.731,0,0,0-.7.976c-.244.455-.426.946-.645,1.418-.094.2-.23.386-.321.589-.142.316-.253.643-.395.958-.177.4-.384.787-.557,1.19-.149.348-.256.715-.4,1.068-.276.682-.586,1.354-.839,2.044-.162.44-.241.909-.367,1.362-.1.369-.213.734-.329,1.1-.187.582-.426,1.152-.565,1.744-.164.691-.241,1.406-.363,2.108a1.7,1.7,0,0,1-.1.235c-.072.207-.142.418-.223.66.659-.028.935-.28.968-.779a5.772,5.772,0,0,1,.093-.941c.155-.645.358-1.277.532-1.917.151-.56.274-1.127.443-1.682.143-.467.344-.914.5-1.378.019-.062-.075-.162-.12-.243s-.089-.154-.135-.231a1.945,1.945,0,0,1,.261-.111A1.617,1.617,0,0,1,36.706,123.578Z" transform="translate(-23.2 -84.572)"/><path class="a" d="M151.773,80.481c-.773.553-1.747.422-2.585,1.049a.443.443,0,0,1-.551.455c-.124-.011-.262.118-.394.183a2.842,2.842,0,0,0,.323.568.481.481,0,0,0,.4.12,4.059,4.059,0,0,0,.711-.286A16.762,16.762,0,0,1,151.6,81.7c.721-.225,1.458-.389,2.177-.649a15.855,15.855,0,0,1,2.182-.379,1.366,1.366,0,0,0,.7-.416c.217-.246.019-.81-.267-.8a9.033,9.033,0,0,0-1.56.217c-.512.109-1.009.291-1.52.419A4.749,4.749,0,0,0,151.773,80.481Z" transform="translate(-101.367 -60.002)"/><path class="a" d="M228.049,34.919c.609.122,1.219.228,1.831.343a1.163,1.163,0,0,1,.152.041c.466.182.926.391,1.4.543s.988.236,1.479.373a7.15,7.15,0,0,1,.888.318c.4.174.782.381,1.18.554.3.13.609.22.909.347.428.18.841.391,1.274.557.481.185.978.335,1.567.534-.017-.348-.025-.513-.034-.688a2.554,2.554,0,0,1-.535-.113c-.406-.181-.793-.4-1.2-.582-.317-.139-.66-.217-.976-.361-.337-.155-.641-.394-.984-.526-.427-.166-.888-.252-1.326-.391-.41-.128-.81-.28-1.217-.424a13.36,13.36,0,0,0-1.39-.489c-.637-.152-1.294-.229-1.945-.339-.052-.008-.119-.013-.146-.046-.4-.461-1.017-.311-1.508-.546a5.242,5.242,0,0,0-1.386-.232c-.2.4.227.664.447.765A7.077,7.077,0,0,0,228.049,34.919Z" transform="translate(-154.558 -28.779)"/><path class="a" d="M59.9,80.926c-.437.477-.945.9-1.342,1.4-.5.634-.914,1.337-1.382,2-.6.851-1.232,1.683-1.827,2.539-.34.487-.622,1.014-.957,1.5-.162.235-.455.406-.194.747.26-.126.514-.246.725-.349.312-.517.592-1.023.911-1.5.338-.507.718-.984,1.065-1.483.381-.546.709-1.134,1.124-1.648.759-.937,1.567-1.836,2.358-2.748.432-.5.87-.988,1.3-1.488.358-.421.9-.781.493-1.512-.588.613-1.17,1.2-1.731,1.816C60.231,80.417,60.1,80.7,59.9,80.926Z" transform="translate(-36.985 -59.267)"/><path class="a" d="M271,50.952c.668.354,1.357.68,2,1.078.532.331,1,.769,1.51,1.134.76.542,1.552,1.037,2.3,1.6.493.372.922.827,1.388,1.23a1.253,1.253,0,0,0,1.506.212l-1.24-1c-.684-.553-1.348-1.133-2.059-1.652-.539-.4-1.184-.659-1.693-1.087a3.171,3.171,0,0,0-1.875-.942c-.042-.162-.079-.314-.1-.391-.593-.345-1.1-.634-1.606-.93a3.4,3.4,0,0,0-.616-.373c-.5-.168-.947-.657-1.621-.333.079.164.112.376.229.446C269.734,50.3,270.369,50.619,271,50.952Z" transform="translate(-183.864 -39.44)"/><path class="a" d="M211.567,85.87c-.608-.25-1.23-.463-1.839-.713-.387-.16-.747-.4-1.14-.536-.47-.164-.965-.253-1.444-.383-.373-.1-.745-.211-1.113-.333-.547-.181-1.082-.41-1.641-.551-.416-.107-.836-.113-1.271-.263a12,12,0,0,0-2.484-.386,19.715,19.715,0,0,1-2.283-.231,14.461,14.461,0,0,0-3.172-.057c.008.557.346.7.891.457a1.081,1.081,0,0,1,.534-.106c.35.039.694.153,1.047.2,1.038.152,2.089-.153,3.146.27.668.269,1.485.065,2.23.348a13.269,13.269,0,0,0,2.064.392,3.98,3.98,0,0,1,1.205.348c.743.433,1.646.364,2.376.847a5.266,5.266,0,0,0,1.171.387,2.807,2.807,0,0,1,.755.333,2.469,2.469,0,0,0,1.621.58C212.167,86.1,211.852,85.988,211.567,85.87Z" transform="translate(-133.462 -61.982)"/><path class="a" d="M171.439,31.47c1.1-.066,2.21-.043,3.316-.077a5.2,5.2,0,0,0,.8-.145,2.924,2.924,0,0,0,.566.124c.2-.489.5-.134.747-.1a5.022,5.022,0,0,0,.554.113c.649.022,1.3,0,1.948.043a1.06,1.06,0,0,0,1.075-.582c-1.426-.107-2.771-.209-4.116-.306a.919.919,0,0,0-.2.054c-.183.041-.367.079-.548.119-.01-.04-.022-.079-.032-.119a1.34,1.34,0,0,1-.459.173,37.7,37.7,0,0,0-5.828.395,5.127,5.127,0,0,0-1.112.412c.015.063.03.126.045.189a3.045,3.045,0,0,0,.476.022C169.6,31.683,170.514,31.527,171.439,31.47Z" transform="translate(-114.978 -26.554)"/><path class="a" d="M138.828,33.8c-.583.13-1.14.382-1.72.538s-1.151.254-1.727.378a.5.5,0,0,0-.1.022c-.436.185-.86.4-1.308.548-.477.158-.98.241-1.467.375a7.893,7.893,0,0,0-1.035.351c-.757.327-1.5.68-2.3,1.041v.6c.38-.164.67-.261.931-.408a3.565,3.565,0,0,1,1.857-.683.829.829,0,0,0,.3-.079c.487-.187.965-.394,1.457-.561.424-.145.865-.237,1.295-.361.666-.194,1.331-.395,2-.59.083-.023.173-.019.256-.046.581-.185,1.151-.418,1.745-.553.693-.16,1.407-.239,2.153-.359-.017-.209-.034-.386-.049-.587C140.308,33.552,139.559,33.637,138.828,33.8Z" transform="translate(-88.327 -28.526)"/><path class="a" d="M131.845,154.075c.236,0,.441.058.5-.01.367-.44.975-.138,1.406-.521a3.066,3.066,0,0,1,1.276-.38c.552-.132,1.108-.247,1.662-.365.327-.071.376-.294.257-.548a5.439,5.439,0,0,0-.412-.625,27.6,27.6,0,0,1-4.194,1.242C132.168,153.285,132.022,153.644,131.845,154.075Z" transform="translate(-90.154 -109.352)"/><path class="a" d="M103.659,116.008c.607-.685,1.259-1.33,1.9-1.977.822-.831,1.656-1.651,2.485-2.473-.216.009-.493-.057-.622.054a21.75,21.75,0,0,0-1.632,1.581c-.931,1-1.868,2-2.737,3.048-.4.481-1,.844-1.086,1.546.138-.037.319-.04.392-.128C102.809,117.116,103.2,116.528,103.659,116.008Z" transform="translate(-69.726 -81.945)"/><path class="a" d="M121.191,111.552l-.008.008h.019Z" transform="translate(-82.863 -81.949)"/><path class="a" d="M249.09,95.407l-.019,0,.009.014h.012V95.4Z" transform="translate(-170.312 -70.906)"/><path class="a" d="M253.462,97.592c-.47-.339-.963-.65-1.463-.945s-1.051-.574-1.575-.866c-.4-.224-.766-.576-1.292-.422.012.094,0,.237.05.265.437.24.886.461,1.337.681a6.709,6.709,0,0,1,.774.363c.4.27.765.6,1.163.879.655.452,1.369.829,1.972,1.337a.933.933,0,0,0,.687.262c-.031-.114-.033-.264-.1-.325C254.506,98.4,254,97.979,253.462,97.592Z" transform="translate(-170.354 -70.85)"/><path class="a" d="M268.057,107.417l0,.015h.011l0-.013Z" transform="translate(-183.295 -79.121)"/><path class="a" d="M137.082,94.888c.1.01.215.063.284.023.684-.394,1.34-.837,2.043-1.2.774-.4,1.587-.722,2.382-1.078,0-.054,0-.1,0-.158a2.176,2.176,0,0,0-.818.017c-.538.239-1.027.588-1.556.854-.72.363-1.465.677-2.181,1.049C137.131,94.454,137.133,94.72,137.082,94.888Z" transform="translate(-93.735 -68.883)"/><path class="a" d="M216.244,33.023c.466.083.922.219,1.434.345v-.691c-1.155-.046-2.249-.662-3.437-.253a.8.8,0,0,0,.907.525A5.388,5.388,0,0,1,216.244,33.023Z" transform="translate(-146.496 -27.746)"/><path class="a" d="M123.728,103.335c.3-.239.644-.422.962-.639a1,1,0,0,0,.171-.2c-.1-.04-.217-.136-.286-.108a2.483,2.483,0,0,0-.483.3c-.6.422-1.2.841-1.8,1.27a6.818,6.818,0,0,1-.886.64c-.339.166-.418.363-.29.682a5.367,5.367,0,0,0,.82-.446C122.546,104.347,123.12,103.82,123.728,103.335Z" transform="translate(-82.776 -75.676)"/><path class="a" d="M121.208,111.533l.011.009,0-.015Z" transform="translate(-82.88 -81.932)"/><path class="a" d="M319.972,89.507c-.225-.314-.416-.194-.591-.081-.056.036.011.365.1.507.252.385.564.73.82,1.114a.931.931,0,0,0,1.22.472c-.008-.067.006-.151-.031-.192C320.985,90.719,320.43,90.147,319.972,89.507Z" transform="translate(-218.375 -66.737)"/><path class="a" d="M326.208,96.293V96.3l0,0v0l.016-.015Z" transform="translate(-223.058 -71.512)"/><path class="a" d="M92.2,149.616l0,0v0l0,0Z" transform="translate(-63.04 -107.974)"/><path class="a" d="M87.6,149.958c-.164.339-.292.694-.44,1.042-.167.39-.367.768-.5,1.171a8.325,8.325,0,0,0-.2,1.033c.273.073.408-.083.487-.386.111-.43.25-.852.391-1.271a6.909,6.909,0,0,1,.313-.783c.2-.421.414-.834.623-1.251C87.822,149.317,87.73,149.688,87.6,149.958Z" transform="translate(-59.117 -107.868)"/><path class="a" d="M97.367,132.573c.2-.378.675-.683.446-1.222a3.119,3.119,0,0,0-.55.484c-.325.458-.611.943-.9,1.424-.241.4-.609.767-.372,1.3.09-.058.207-.1.26-.178C96.634,133.789,97.035,133.2,97.367,132.573Z" transform="translate(-65.584 -95.487)"/><path class="a" d="M101.926,131.286l.007-.017-.018,0,0,.024.011-.009Z" transform="translate(-69.687 -95.431)"/><path class="a" d="M96.134,141.526l-.006-.019-.008.006h0l0,.008.015.006Z" transform="translate(-65.723 -102.432)"/><path class="a" d="M92.526,142.412c.146-.32.259-.655.383-.986-.083-.024-.2-.075-.219-.051a11.693,11.693,0,0,0-.732,1.019c-.205.341-.36.71-.532,1.056.077.164.16.346.244.525a.892.892,0,0,0,.172-.177C92.076,143.339,92.311,142.881,92.526,142.412Z" transform="translate(-62.515 -102.338)"/><path class="a" d="M189.975,82.314l-1.152.267c-.269-.231-.555-.122-.651.366.472,0,.939-.013,1.406,0C189.993,82.967,190.1,82.788,189.975,82.314Z" transform="translate(-128.67 -61.956)"/><path class="a" d="M144.3,88.587c-.085-.156-.543-.111-.831-.156-.014.073-.029.146-.043.219l.716.266c-.4.1-.666.175-.992.262.321.184.57.323.818.466A.71.71,0,0,0,144.3,88.587Z" transform="translate(-97.884 -66.139)"/><path class="a" d="M165.079,86.375c-.638.1-1.274.239-1.9.381-.04.009-.047.16-.067.254l2.336-.361C165.333,86.475,165.2,86.358,165.079,86.375Z" transform="translate(-111.531 -64.732)"/><rect class="a" width="0.013" height="0.014" transform="translate(51.557 22.281)"/><path class="a" d="M155.076,89.847a1.889,1.889,0,0,0,1.576-.424c.006-.009,0-.026,0-.04A1.675,1.675,0,0,0,155.076,89.847Z" transform="translate(-106.039 -66.776)"/><path class="a" d="M160.079,89.4l.01-.015-.023,0h0V89.4Z" transform="translate(-109.45 -66.793)"/><path class="a" d="M183.748,83.543c0-.049-.074-.132-.118-.132-.482-.01-.968-.006-1.453-.006,0,.1,0,.2,0,.3.495,0,.988,0,1.482-.008C183.691,83.7,183.752,83.594,183.748,83.543Z" transform="translate(-124.569 -62.702)"/><path class="a" d="M133.993,100.342c-.034.262-.057.416-.078.568l.112.119c.19-.182.381-.361.57-.543Z" transform="translate(-91.569 -74.284)"/><path class="a" d="M161.056,88.43a4.253,4.253,0,0,0-.711.022c-.083.015-.14.175-.207.278a3.957,3.957,0,0,0,.7-.026C160.928,88.691,160.984,88.533,161.056,88.43Z" transform="translate(-109.5 -66.136)"/><path class="a" d="M211.247,240.265l-.008.007.008.008Z" transform="translate(-144.443 -169.962)"/><path class="a" d="M211.6,231.919c.614-.1,1.219-.255,1.824-.4a9.08,9.08,0,0,0,1.011-.3c.456-.173.891-.412,1.357-.555.541-.162,1.109-.239,1.656-.379.387-.1.763-.246,1.136-.379.5-.179.988-.4,1.5-.541s1.055-.214,1.581-.345c.37-.089.73-.218,1.092-.343.537-.185,1.067-.4,1.609-.562.5-.15,1.021-.219,1.517-.374.653-.2,1.292-.454,1.985-.7-.017-.246-.038-.528-.071-.944-.518.158-.942.3-1.377.414-.533.137-1.093.2-1.609.383a5.057,5.057,0,0,1-1.891.6.288.288,0,0,0-.1.017c-.647.206-1.294.418-1.943.614-.456.139-.924.231-1.377.377-.6.2-1.184.431-1.8.656-.025.117-.058.283-.081.381a1.775,1.775,0,0,0-.62-.148,13.391,13.391,0,0,0-1.669.385c-.5.15-.974.4-1.479.551a7.7,7.7,0,0,0-1.56.408.83.83,0,0,1-1.169-.14c-.021.256-.039.512-.062.766C211.024,231.757,211.205,231.985,211.6,231.919Z" transform="translate(-144.314 -160.276)"/><path class="a" d="M167.906,305.787a.485.485,0,0,1-.244-.069c-.5-.4-1.048-.187-1.615-.239,0,.339-.015.6.008.861.012.121.073.316.156.343a6.858,6.858,0,0,0,1.246.32c.466.061.942.033,1.416.061a.652.652,0,0,1,.361.117,1.291,1.291,0,0,0,1.376,0c.209.081.376.158.552.21a2.55,2.55,0,0,0,.59.129,3.422,3.422,0,0,0,.606-.062c.113-.012.292-.081.335-.033.386.441.759.291,1.094.046.682.376,1.373.112,2.073.192v-1.138c-1.264-.131-2.492-.271-3.723-.385C170.728,306.01,169.316,305.906,167.906,305.787Z" transform="translate(-113.537 -214.547)"/><rect class="a" width="0.021" height="0.015" transform="translate(80.663 86.496)"/><path class="a" d="M204.272,304.868c-.152.033-.316.01-.47.037-.451.085-.9.181-1.342.277a9.52,9.52,0,0,1-1.311.272c-.892.056-1.79.044-2.682.071-.377.012-.6.323-.428.57.146.212.292.426.43.631.818,0,1.66-.029,2.5.008.56.027.936-.069.882-.735,0-.054.056-.112.156-.3.09.32.146.514.2.706h.512c.046-.316.086-.574.133-.88.248.331.443.587.56.749l2.472-.587v-1.134a4.035,4.035,0,0,0-.549.046C204.976,304.677,204.626,304.789,204.272,304.868Z" transform="translate(-135.377 -213.922)"/><path class="a" d="M256.074,294.447l.019.014.006-.022-.018,0Z" transform="translate(-175.101 -207.006)"/><path class="a" d="M239.37,292.2a3.546,3.546,0,0,1-.025-.687,1.777,1.777,0,0,0-.584.095c-.493.26-.957.579-1.446.847-.316.173-.672.273-.986.451a4.826,4.826,0,0,1-1.756.834.645.645,0,0,0-.241.077,5.846,5.846,0,0,1-.843.512c-.449.169-.926.262-1.427.4.156.314.293.593.431.872.016.05.031.1.045.151.884-.279,1.768-.562,2.592-.824-.065-.323-.119-.581-.169-.84a1.043,1.043,0,0,1,.562.366c.2.349.325.258.414-.042A1.419,1.419,0,0,0,235.9,294a1.347,1.347,0,0,1,.036-.241c.077.015.179.006.225.05.165.162.312.341.445.489.322-.212.593-.424.891-.586.52-.273,1.063-.5,1.579-.78a3.772,3.772,0,0,0,.576-.487C239.547,292.369,239.39,292.3,239.37,292.2Z" transform="translate(-158.682 -205.007)"/><path class="a" d="M346.849,225.445c-.156.543-.314,1-.416,1.471-.15.687-.231,1.39-.393,2.077-.169.711-.4,1.409-.6,2.112-.021.069-.04.135-.065.2-.175.42-.376.836-.526,1.263s-.229.853-.36,1.274a7.077,7.077,0,0,1-.347.932c-.158.331-.37.637-.535.967a4.979,4.979,0,0,0-.314.794c-.021.073.077.183.123.275.054.11.11.214.168.322.456-.054.426-.527.572-.782a12.56,12.56,0,0,0,.709-1.891c.115-.323.243-.643.354-.965.073-.212.131-.429.227-.741.25-.027.287-.323.343-.682a9.368,9.368,0,0,1,.393-1.413c.165-.522.391-1.028.526-1.56.158-.628.244-1.277.362-1.918.006-.034,0-.079.025-.1.46-.491.191-1.078.293-1.675C347.122,225.423,346.941,225.438,346.849,225.445Z" transform="translate(-234.735 -159.802)"/><path class="a" d="M344.183,262.506h.019l-.009-.017-.008,0Z" transform="translate(-235.349 -185.158)"/><path class="a" d="M324.272,272.189c.092.154.181.3.273.452.087,0,.214.037.246,0,.445-.564.894-1.126,1.308-1.716.314-.445.568-.93.866-1.386.329-.507.689-.993,1.017-1.5.225-.349.412-.722.614-1.088.231-.418.47-.834.678-1.263a12.068,12.068,0,0,1,.715-1.527,2.59,2.59,0,0,0,.581-1.614h-.521A48.527,48.527,0,0,1,324.272,272.189Z" transform="translate(-221.734 -185.196)"/><path class="a" d="M88.862,317.377c-.551-.331-1.112-.653-1.631-1.03-.642-.47-1.212-1.047-1.877-1.482-.778-.51-1.362-1.247-2.2-1.706A6.91,6.91,0,0,1,81.79,311.8c-.348-.36-.726-.593-1.046-.46.071.181.1.485.269.641.753.7,1.543,1.365,2.326,2.035.807.693,1.6,1.4,2.434,2.06a20.991,20.991,0,0,0,1.859,1.286,5.538,5.538,0,0,0,1.707,1A.8.8,0,0,0,88.862,317.377Z" transform="translate(-55.211 -218.537)"/><path class="a" d="M107.92,333.642l0,.015.009-.014Z" transform="translate(-73.793 -233.812)"/><path class="a" d="M266.727,256.559c-.2.274-.343.487-.5.69-.194.25-.4.489-.6.739q-.9,1.146-1.783,2.3c-.26.337-.516.678-.776,1.019a1.012,1.012,0,0,0-.331.121c-.521.482-1.028.982-1.548,1.468-.341.312-.691.612-1.04.916s-.7.639-1.086.916c-.532.389-1.093.731-1.639,1.1-.582.391-1.174.772-1.737,1.188a3.752,3.752,0,0,0-.53.585.474.474,0,0,1,.372.709.9.9,0,0,0-.056.225c.552.052.841-.456,1.292-.614.581-.206.676-.681.755-1.205.077.135.073.285.142.385a.318.318,0,0,0,.295.1,4.641,4.641,0,0,0,.566-.4c-.046-.083-.116-.2-.181-.32.179-.143.329-.262.5-.395.227.552.323.114.537-.025a6.5,6.5,0,0,0,1.594-1.315c.252-.318.481-.718,1.022-.691.131,0,.279-.308.414-.481.177-.216.308-.559.53-.63.481-.156.481-.464.447-.846-.017-.188-.023-.381-.033-.574.171.191.343.381.564.632.266-.337.564-.709.861-1.084-.034-.034-.073-.071-.108-.108.169-.021.341-.036.437-.05a2.77,2.77,0,0,1,.5-.759c.343-.243.306-.422-.021-.714a1.11,1.11,0,0,0,1.207-.611c.1-.164.25-.3.335-.468.133-.266.383-.6.308-.812A4.35,4.35,0,0,0,266.727,256.559Z" transform="translate(-174.474 -181.104)"/><path class="a" d="M141.067,349.491l.01-.012h-.01Z" transform="translate(-96.46 -244.642)"/><path class="a" d="M120.938,338.738c-.473-.148-.962-.252-1.443-.379a.5.5,0,0,1-.132-.073,8.515,8.515,0,0,0-.858-.516c-.548-.249-1.123-.437-1.669-.69-.611-.285-1.211-.6-1.8-.924-.286-.154-.534-.385-.822-.535-.365-.189-.756-.325-1.227-.524.049.364-.2.608.244.784.638.252,1.228.626,1.845.938.642.327,1.289.639,1.936.959.243.119.483.246.728.366.367.185.727.377,1.1.543a8.822,8.822,0,0,0,1.39.549c.54.129,1,.595,1.619.41v-.487A8.386,8.386,0,0,0,120.938,338.738Z" transform="translate(-77.24 -234.807)"/><path class="a" d="M309.035,295.224a5.946,5.946,0,0,0-.682.528c-.144.154-.212.387-.36.539-.568.587-1.151,1.159-1.731,1.733-.938.936-1.883,1.86-2.8,2.811a3.543,3.543,0,0,0-.441.753l.183.177a2.252,2.252,0,0,0,.5-.258c.607-.541,1.217-1.078,1.785-1.656.891-.9,1.758-1.827,2.62-2.755a10.446,10.446,0,0,0,1.211-1.44c.244-.383.847-.589.686-1.2C309.366,294.377,309.212,294.52,309.035,295.224Z" transform="translate(-207.202 -207.003)"/><rect class="a" width="0.014" height="0.012" transform="translate(102.802 87.443)"/><path class="a" d="M152.565,301.576c-.313-.106-.627-.21-.885-.3-.16.52-.276.9-.377,1.225l.9.295c.29-.033.45-.048.609-.065.04.566.487.433.828.487.359.058.745.208.935-.47.1.381.156.593.237.9a3.174,3.174,0,0,1,.22-.295,2.571,2.571,0,0,1,.243-.181c.064.258.111.46.16.662.053-.008.109-.011.162-.016V302.4c-.668-.16-1.311-.3-1.946-.468C153.283,301.836,152.926,301.7,152.565,301.576Z" transform="translate(-103.459 -211.682)"/><path class="a" d="M169.969,303.016c1.572.129,3.147.2,4.718.32a.957.957,0,0,0,.968-.5c-.158-.025-.27-.048-.384-.06-1.712-.15-3.443.2-5.147-.3-.713-.208-1.5.023-2.25-.312a6.056,6.056,0,0,0-1.65-.233v.337c.6.156,1.148.327,1.71.439A17.615,17.615,0,0,0,169.969,303.016Z" transform="translate(-113.663 -212.128)"/><path class="a" d="M260.746,336.721a10.683,10.683,0,0,0,1.344-.495c.551-.246,1.092-.52,1.623-.8a7.627,7.627,0,0,1,1.5-.759,6.935,6.935,0,0,0,1.61-1v-.574l-6.593,3.447A.637.637,0,0,0,260.746,336.721Z" transform="translate(-177.94 -233.434)"/><path class="a" d="M142.773,294.394c.367.131.755.212,1.112.364.643.275,1.256.63,1.908.878.667.254,1.365.431,2.054.622a1.484,1.484,0,0,0,.479-.017c.018-.071.036-.14.053-.21-.311-.121-.617-.254-.932-.362-.428-.142-.871-.243-1.3-.4s-.843-.374-1.279-.526c-.42-.148-.864-.227-1.285-.372a6.4,6.4,0,0,1-.88-.408c-.514-.262-.988-.662-1.628-.468a4.623,4.623,0,0,0,.632.452A8.769,8.769,0,0,0,142.773,294.394Z" transform="translate(-96.469 -206.327)"/><path class="a" d="M141.025,293.6l-.018-.012L141,293.6A.144.144,0,0,1,141.025,293.6Z" transform="translate(-96.412 -206.423)"/><path class="a" d="M262.233,283.619l-.021.011a.1.1,0,0,0,.033,0Z" transform="translate(-179.298 -199.607)"/><rect class="a" width="0.015" height="0.013" transform="translate(75.919 87.759)"/><path class="a" d="M243.117,286.153c.661-.36,1.348-.664,2-1.039a14.07,14.07,0,0,0,1.2-.865c.264-.193.528-.389.79-.581a3.65,3.65,0,0,0-.759.146,5.838,5.838,0,0,0-.7.42c-.451.254-.916.477-1.359.743-.809.481-1.588,1.009-2.413,1.459-.526.289-1.109.466-1.658.712-.056.025-.061.16-.09.252a9.974,9.974,0,0,0,1.521-.393C242.164,286.787,242.619,286.423,243.117,286.153Z" transform="translate(-164.195 -199.641)"/><path class="a" d="M224.456,302.831a.619.619,0,0,0-.27.882.668.668,0,0,0,.557.277,4.725,4.725,0,0,0,1.011-.3c.31-.106.616-.229.871-.325-.168-.358-.28-.6-.439-.945A15.359,15.359,0,0,0,224.456,302.831Z" transform="translate(-153.244 -212.461)"/><path class="a" d="M284.412,326.638c-.62.331-1.171.784-1.775,1.148-.532.323-.618.5-.41,1.143a4.528,4.528,0,0,1,.566-.57,6.834,6.834,0,0,1,.7-.316,4.153,4.153,0,0,0,.433-.295c.543-.364,1.086-.724,1.629-1.086-.027-.07-.054-.139-.079-.208A3.45,3.45,0,0,0,284.412,326.638Z" transform="translate(-192.912 -228.898)"/><path class="a" d="M129.021,286.432c-.009,0-.019,0-.031-.006a.2.2,0,0,1,.015.021Z" transform="translate(-88.202 -201.526)"/><path class="a" d="M115.052,275.478l-.012.012h.009Z" transform="translate(-78.663 -194.04)"/><path class="a" d="M115.066,275.711c.576.47,1.161.926,1.745,1.384a20.378,20.378,0,0,1,2.007,1.614c.235.235.428.166.637.214a5.915,5.915,0,0,0-.761-.9c-.767-.626-1.563-1.222-2.376-1.793-.4-.283-.615-.893-1.263-.757C115.052,275.557,115.024,275.678,115.066,275.711Z" transform="translate(-78.665 -194.023)"/><path class="a" d="M279.783,258.356c.4-.423.778-.874,1.153-1.325.562-.674,1.125-1.348,1.656-2.045.083-.108.013-.331.016-.5-.079,0-.194-.033-.233.008-.225.246-.445.5-.647.768-.508.672-.99,1.365-1.509,2.027-.32.408-.686.784-1.03,1.174.031.058.061.118.094.176A1.868,1.868,0,0,0,279.783,258.356Z" transform="translate(-190.906 -179.677)"/><path class="a" d="M268.1,278.443l-.021.008-.01.021.021-.009Z" transform="translate(-183.303 -196.068)"/><path class="a" d="M269.945,270.337c.553-.541,1.078-1.109,1.616-1.664-.045-.067-.085-.137-.129-.2a2.388,2.388,0,0,0-.431.256c-.834.764-1.667,1.533-2.478,2.316a2.607,2.607,0,0,0-.356.586,2.571,2.571,0,0,0,.608-.266A14.357,14.357,0,0,0,269.945,270.337Z" transform="translate(-183.369 -189.248)"/><path class="a" d="M129.053,286.444l-.016.016h.028Z" transform="translate(-88.234 -201.539)"/><path class="a" d="M140.986,293.565l-.019-.008.01.023Z" transform="translate(-96.391 -206.403)"/><path class="a" d="M130.979,287.8a5.927,5.927,0,0,0,1.893.921c-.124-.639-.753-.678-1.176-.957s-.883-.5-1.315-.772a1.91,1.91,0,0,0-1.255-.5,2.444,2.444,0,0,0,.495.586C130.052,287.344,130.558,287.508,130.979,287.8Z" transform="translate(-88.295 -201.563)"/><path class="a" d="M221.518,298.781c.47-.112.9-.431,1.365-.508a.927.927,0,0,0,.834-.586,1.513,1.513,0,0,0-.471.008c-.732.271-1.448.6-2.193.836a18.533,18.533,0,0,1-1.833.377c-.054.011-.1.065-.193.121.087.067.142.145.183.137C219.986,299.05,220.762,298.958,221.518,298.781Z" transform="translate(-149.768 -209.216)"/><path class="a" d="M209.044,302.573a1.784,1.784,0,0,0-.437-.046,4.615,4.615,0,0,1-1.259.275,8.873,8.873,0,0,0-2.122.42c-.012,0-.015.061-.024.092A7.588,7.588,0,0,0,209.044,302.573Z" transform="translate(-140.315 -212.532)"/><path class="a" d="M263.965,278.534a2.948,2.948,0,0,0-.611.229,6.84,6.84,0,0,1-.934.67c-.4.165-.406.385-.279.7.514-.391,1.036-.776,1.538-1.182A1.723,1.723,0,0,0,263.965,278.534Z" transform="translate(-179.199 -196.13)"/><path class="a" d="M262.272,283.594l.014.012-.006-.017Z" transform="translate(-179.339 -199.587)"/><path class="a" d="M149.933,260.433v-.963c-.211.027-.519.029-.525.069-.064.464-.395.2-.606.254-.252.068-.625-.139-.721.295.376.04.751.081,1.178.125C149.452,259.764,149.661,260.265,149.933,260.433Z" transform="translate(-101.257 -183.094)"/><path class="a" d="M148.018,261.424l.012.012.007-.009Z" transform="translate(-101.213 -184.43)"/><path class="a" d="M107.918,333.661l.016-.01-.006,0Z" transform="translate(-73.793 -233.816)"/><path class="a" d="M108.679,332.71c-.185-.347-.3-.249-.465,0-.049.073-.162.1-.25.148.392.314.785.628,1.174.944.043-.034.087-.069.133-.1-.016-.283-.032-.568-.046-.811C108.99,332.818,108.736,332.818,108.679,332.71Z" transform="translate(-73.823 -233.022)"/><path class="a" d="M299.142,318.247c.58.4.893.015,1.221-.316-.137-.152-.273-.3-.458-.5C299.641,317.711,299.4,317.969,299.142,318.247Z" transform="translate(-204.55 -222.724)"/><path class="a" d="M294.1,247.367c0,.009,0,.021,0,.033a.1.1,0,0,1,.015-.016l-.008-.009.008.007a.1.1,0,0,0,.008-.023c-.009,0-.014.009-.025.008Z" transform="translate(-201.103 -174.813)"/><path class="a" d="M237.53,295.561a.074.074,0,0,0-.012-.037c-.391.106-.782.208-1.166.331-.027.009-.04.237,0,.268C236.552,296.26,237.462,295.814,237.53,295.561Z" transform="translate(-161.598 -207.748)"/><path class="a" d="M141.226,296.346c-.049.027-.1.058-.147.089.023.289.045.577.068.866.05.013.1.031.148.042.128-.162.376-.347.353-.481C141.613,296.669,141.377,296.516,141.226,296.346Z" transform="translate(-96.468 -208.31)"/><path class="a" d="M265.419,225.672a.234.234,0,0,0-.173-.131.22.22,0,0,0-.151.156c-.019.237-.009.476-.009.76.231-.02.395-.035.6-.05C265.577,226.1,265.509,225.883,265.419,225.672Z" transform="translate(-181.261 -159.893)"/><path class="a" d="M289.673,249.3c.689.148.845-.081.78-.547a1.329,1.329,0,0,0,.295-.112c.42-.295.343-.732.325-1.152a1.33,1.33,0,0,0-.626,1.224C290.224,248.88,290,249.053,289.673,249.3Z" transform="translate(-198.075 -174.9)"/><path class="a" d="M77.134,308.316l.325-.023c-.014-.05-.027-.1-.041-.146C77.324,308.2,77.229,308.258,77.134,308.316Z" transform="translate(-52.743 -216.379)"/><path class="a" d="M78.322,309.129c.03,0,.058,0,.087,0v-.578c-.092.008-.164.012-.244.019C78.216,308.754,78.269,308.941,78.322,309.129Z" transform="translate(-53.447 -216.653)"/><path class="a" d="M331.43,139.652c.119.4.212.809.347,1.2.058.169.227.3.271.471.135.5.206,1.018.356,1.512.16.528.391,1.033.566,1.558.14.431.243.875.374,1.342a2.646,2.646,0,0,0,.543-.358c.339-.406.839-.8.928-1.266a5.485,5.485,0,0,0-.485-3.317,7.62,7.62,0,0,0-.711-1.589,2.892,2.892,0,0,0-1.654-1.215,2.491,2.491,0,0,0-.9.164,7.04,7.04,0,0,0,.11.753C331.239,139.165,331.354,139.4,331.43,139.652Zm1.329.1.138-.018c.033.293.065.582.1.874l-.239.023C332.758,140.342,332.758,140.05,332.758,139.757Z" transform="translate(-226.381 -100.021)"/><path class="a" d="M121.909,203.2c.049-.169.1-.339.152-.5.009-.027.041-.048.1-.106.109.095.213.183.318.275.544-.246.473-.7.489-1.13a1.386,1.386,0,0,0-.862-1.311c-.677-.25-1.106.042-1.016.739a8.747,8.747,0,0,0,.367,1.569C121.513,202.915,121.751,203.044,121.909,203.2Z" transform="translate(-82.789 -142.657)"/></g></g></svg>