<svg xmlns="http://www.w3.org/2000/svg" width="126.717" height="112" viewBox="0 0 126.717 112"><defs><style>.a{fill:#de6834;}</style></defs><g transform="translate(0 -29.5)"><g transform="translate(0 29.5)"><g transform="translate(0 0)"><path class="a" d="M47.07,29.5C21.1,29.525,0,45.963,0,66.193c0,8.681,3.916,17.012,11.025,23.622L7.458,109.347,23.5,97.972a57.613,57.613,0,0,0,23.547,4.914c25.967,0,47.07-16.463,47.07-36.693S73.012,29.5,47.07,29.5Zm0,69.3A54.487,54.487,0,0,1,23.1,93.258l-9.828,6.959,2.2-11.923S4.091,79.888,4.091,66.193c0-17.985,19.282-32.6,42.979-32.6s42.979,14.617,42.979,32.6S70.767,98.8,47.07,98.8Z" transform="translate(0 -29.5)"/></g></g><g transform="translate(33.201 65.021)"><path class="a" d="M226.616,205.675c0-12.846-8.381-26.441-28.437-33.775l-.15,2.844c-1.122,21.926-23.547,39.088-51.086,39.088A80.216,80.216,0,0,1,133.1,212.41c6.411,21.751,29.833,29.958,46.471,29.958a57.827,57.827,0,0,0,23.672-4.964l20.105,10.975-5.039-21.826A31.3,31.3,0,0,0,226.616,205.675Zm-23.248,27.164a55.164,55.164,0,0,1-23.8,5.463c-17.785,0-33.675-8.406-40.036-20.779a67.141,67.141,0,0,0,7.433.4c28.511,0,51.984-17.386,54.9-40.086,12.846,5.912,20.7,16.388,20.7,27.863,0,11.973-8.706,19.656-8.706,19.656l3.492,15.091Z" transform="translate(-133.1 -171.9)"/></g><g transform="translate(24.645 49.904)"><g transform="translate(0 0)"><rect class="a" width="44.825" height="4.066"/></g></g><g transform="translate(16.488 64.148)"><rect class="a" width="61.139" height="4.066"/></g><g transform="translate(45.024 78.416)"><g transform="translate(0 0)"><rect class="a" width="4.066" height="4.066"/></g></g><g transform="translate(53.156 78.416)"><g transform="translate(0 0)"><rect class="a" width="4.066" height="4.066"/></g></g><g transform="translate(36.868 78.416)"><g transform="translate(0 0)"><rect class="a" width="4.066" height="4.066"/></g></g></g></svg>