<svg xmlns="http://www.w3.org/2000/svg" width="354" height="353.136" viewBox="0 0 354 353.136"><defs><style>.a{fill:#fff;}</style></defs><path class="a" d="M141.393,317.083v35.853l-8.67-7a581.207,581.207,0,0,1-65.532-64.066C22.606,230.679,0,184.73,0,145.3v-3.908C0,63.428,63.428,0,141.393,0S282.785,63.428,282.785,141.393V145.3c0,3.311-.176,6.674-.494,10.077L254.64,130.152A113.8,113.8,0,0,0,27.589,141.393V145.3C27.589,211.93,113.437,292.589,141.393,317.083Zm84.835-19.816h41.382V255.885H226.228Zm-84.835-214.5a58.626,58.626,0,1,1-58.626,58.626A58.694,58.694,0,0,1,141.393,82.766Zm0,27.589a31.038,31.038,0,1,0,31.038,31.038A31.072,31.072,0,0,0,141.393,110.355ZM335.408,278.521l-7.757-7.076v44.291a37.445,37.445,0,0,1-37.4,37.4H202.9a37.445,37.445,0,0,1-37.4-37.4V271.444l-7.757,7.076-18.592-20.38,107.425-98L354,258.14Zm-35.345-32.245-53.489-48.8-53.487,48.8v69.457a9.825,9.825,0,0,0,9.815,9.815h87.347a9.825,9.825,0,0,0,9.815-9.815Zm0,0"/></svg>