<svg xmlns="http://www.w3.org/2000/svg" width="145.794" height="99.042" viewBox="0 0 145.794 99.042"><defs><style>.a{fill:#de6834;}</style></defs><g transform="translate(0 0)"><path class="a" d="M91.076,48.191,86.9,54.9a6.508,6.508,0,0,0-4.443-.266l-4.111-7.376a14.6,14.6,0,0,0-3.134,1.7l4.23,7.59a6.544,6.544,0,1,0,10.24.63l4.245-6.828A14.755,14.755,0,0,0,91.076,48.191ZM84.314,65.115a4.2,4.2,0,1,1,4.2-4.2A4.207,4.207,0,0,1,84.314,65.115Z" transform="translate(18.835 -11.542)"/><path class="a" d="M94.842,49.311,105.9,31.528a6.575,6.575,0,1,0-3.025-1.887L91.917,47.264A24.113,24.113,0,0,1,94.842,49.311Zm12.864-28.273a4.2,4.2,0,1,1-4.2,4.2A4.207,4.207,0,0,1,107.706,21.038Z" transform="translate(23.017 -18.695)"/><path class="a" d="M81.9,38.159a6.373,6.373,0,0,0,2.987-.118l4.53,8.128a23.883,23.883,0,0,1,3.121-1.724l-4.6-8.258a6.544,6.544,0,1,0-9.214.358L64,67.246a6.508,6.508,0,0,0-1.846-.269,6.434,6.434,0,0,0-1.779.253l-13.2-24.4a6.544,6.544,0,1,0-11.357-2.113L10.941,56.209a6.551,6.551,0,1,0,1.891,3.022l24.947-15.54a6.478,6.478,0,0,0,6.471,1.222L57.337,69.105a6.546,6.546,0,1,0,9.693.064Zm1.248-10.627a4.2,4.2,0,1,1-4.2,4.2A4.207,4.207,0,0,1,83.144,27.532ZM6.546,65.249a4.2,4.2,0,1,1,4.2-4.2A4.208,4.208,0,0,1,6.546,65.249ZM42.059,42.955a4.2,4.2,0,1,1,4.2-4.2A4.207,4.207,0,0,1,42.059,42.955ZM62.153,77.728a4.2,4.2,0,1,1,4.2-4.205A4.209,4.209,0,0,1,62.153,77.728Z" transform="translate(0 -17.069)"/><path class="a" d="M129.094,107.415,102.933,77.383a22.387,22.387,0,1,0-4.481,3.9l26.161,30.035a2.972,2.972,0,0,0,4.481-3.9ZM96.936,75.02a16.438,16.438,0,1,1,1.6-23.19A16.456,16.456,0,0,1,96.936,75.02Z" transform="translate(15.968 -13.296)"/></g></svg>