<svg xmlns="http://www.w3.org/2000/svg" width="158.289" height="99.041" viewBox="0 0 158.289 99.041"><defs><style>.a{fill:#de6834;}</style></defs><g transform="translate(110.749 11.885)"><path class="a" d="M33.847,39.693A15.847,15.847,0,1,1,49.693,23.847,15.893,15.893,0,0,1,33.847,39.693Zm0-23.77a7.486,7.486,0,0,0-7.923,7.923,7.486,7.486,0,0,0,7.923,7.923,7.486,7.486,0,0,0,7.923-7.923A7.486,7.486,0,0,0,33.847,15.923Z" transform="translate(-18 -8)"/></g><g transform="translate(110.749 51.501)"><path class="a" d="M61.578,44.693a3.743,3.743,0,0,1-3.962-3.962V32.808A12.186,12.186,0,0,0,45.732,20.923H21.962A3.743,3.743,0,0,1,18,16.962,3.743,3.743,0,0,1,21.962,13h23.77A19.616,19.616,0,0,1,65.54,32.808v7.923A3.743,3.743,0,0,1,61.578,44.693Z" transform="translate(-18 -13)"/></g><g transform="translate(15.847 11.885)"><path class="a" d="M17.847,39.693A15.847,15.847,0,1,1,33.693,23.847,15.893,15.893,0,0,1,17.847,39.693Zm0-23.77a7.486,7.486,0,0,0-7.923,7.923,7.486,7.486,0,0,0,7.923,7.923,7.486,7.486,0,0,0,7.923-7.923A7.486,7.486,0,0,0,17.847,15.923Z" transform="translate(-2 -8)"/></g><g transform="translate(0 51.501)"><path class="a" d="M3.962,44.693A3.743,3.743,0,0,1,0,40.732V32.808A19.616,19.616,0,0,1,19.808,13h23.77a3.743,3.743,0,0,1,3.962,3.962,3.743,3.743,0,0,1-3.962,3.962H19.808A12.186,12.186,0,0,0,7.923,32.808v7.923A3.743,3.743,0,0,1,3.962,44.693Z" transform="translate(0 -13)"/></g><g transform="translate(55.375 0)"><path class="a" d="M32.77,54.04A23.346,23.346,0,0,1,9,30.27,23.346,23.346,0,0,1,32.77,6.5,23.346,23.346,0,0,1,56.54,30.27,23.346,23.346,0,0,1,32.77,54.04Zm0-39.617A15.847,15.847,0,1,0,48.617,30.27,15.893,15.893,0,0,0,32.77,14.423Z" transform="translate(-9 -6.5)"/></g><g transform="translate(35.566 59.425)"><path class="a" d="M89.695,53.617a3.743,3.743,0,0,1-3.962-3.962V33.808A12.186,12.186,0,0,0,73.848,21.923H26.308A12.186,12.186,0,0,0,14.423,33.808V49.655a3.743,3.743,0,0,1-3.962,3.962A3.743,3.743,0,0,1,6.5,49.655V33.808A19.616,19.616,0,0,1,26.308,14h47.54A19.616,19.616,0,0,1,93.656,33.808V49.655A3.743,3.743,0,0,1,89.695,53.617Z" transform="translate(-6.5 -14)"/></g></svg>