<svg xmlns="http://www.w3.org/2000/svg" width="43.423" height="43.423" viewBox="0 0 43.423 43.423"><defs><style>.a{fill:#333;}</style></defs><path class="a" d="M21.711,0A21.711,21.711,0,1,0,43.423,21.711,21.714,21.714,0,0,0,21.711,0ZM15.4,32.822H10.115V16.913H15.4Zm-2.644-18.08h-.034a2.756,2.756,0,1,1,.07-5.5,2.757,2.757,0,1,1-.035,5.5Zm21.71,18.08H29.182V24.311c0-2.139-.766-3.6-2.679-3.6a2.9,2.9,0,0,0-2.713,1.934,3.621,3.621,0,0,0-.174,1.29v8.884H18.329s.069-14.416,0-15.908h5.287v2.252a5.249,5.249,0,0,1,4.765-2.626c3.479,0,6.087,2.274,6.087,7.16Zm0,0"/></svg>