<svg xmlns="http://www.w3.org/2000/svg" width="98.888" height="98.888" viewBox="0 0 98.888 98.888"><path d="M224.113,226.566,240.2,217.3l-16.084-9.263Zm0,0" transform="translate(-180.828 -167.858)"/><path d="M49.444,0A49.444,49.444,0,1,0,98.888,49.444,49.45,49.45,0,0,0,49.444,0Zm30.9,49.495s0,10.028-1.272,14.863A7.742,7.742,0,0,1,73.621,69.8c-4.835,1.273-24.177,1.273-24.177,1.273s-19.291,0-24.177-1.323a7.743,7.743,0,0,1-5.446-5.446c-1.273-4.784-1.273-14.862-1.273-14.862s0-10.027,1.273-14.862a7.9,7.9,0,0,1,5.446-5.5c4.835-1.273,24.177-1.273,24.177-1.273s19.341,0,24.177,1.323a7.743,7.743,0,0,1,5.446,5.446C80.391,39.417,80.339,49.495,80.339,49.495Zm0,0"/></svg>